<?xml version="1.0" encoding="UTF-8"?>
<svg id="IMAGE" xmlns="http://www.w3.org/2000/svg" version="1.1" viewBox="0 0 1080 1080">
  <!-- Generator: Adobe Illustrator 29.7.0, SVG Export Plug-In . SVG Version: 2.1.1 Build 138)  -->
  <path d="M1051.3,544.1c-2.7,0-4.8-2.2-4.8-4.9-.3-7.3,0-15-.5-22.6-1.1-22.3-3.5-44-7.4-66-11.3-65.5-36.2-128.1-72.2-184-32.9-52.1-75.8-97.7-125.1-134.6-15-9.7-26.6-23.3-42.4-31.7-4.7-2.4-7.6-2.6-12.5-4.7-4.8-2.1-7-3.8-11.7-6-12.5-5-23.7-10.7-35.9-16.3-20.6-7.7-40.8-15.7-62-21.5-38.3-10.7-78.1-15.6-117.8-16.8-8.4-.4-16.4,0-25,.2-9.2,0-17.3-2.2-26.4-1.9-5.2.4-7.7,2.3-12.9,3.1-5.2.8-7.9.2-13.1,1.1-8.9,2.4-16.5,4.9-25.7,5.9-30.2,5.7-59.5,14.2-88.2,25.2-20.6,8.1-39.9,17.7-59.9,27.1-11.5,6.9-22.4,13.4-33.5,20.9-8,4.5-15.2,8.2-22.7,13.6-11.2,7.8-21,15.9-29.7,26.4-33.1,29.1-62.6,62.1-87.2,98.7-84,123.8-109.3,285.6-65.2,428.7,14.2,46.7,35.1,91.1,62.3,131.6,9.9,14.9,20.3,28.7,31.8,42.4,8.8,10.4,17.7,19.4,25.6,30.5,44.2,43,95.4,79.5,152.4,103.6,48.5,21,100.3,33.2,152.8,38.1,26.4,1.5,52.5,1.4,78.9-.2,48.3-3.6,95.4-16.1,141.2-31.6,82.8-31.9,155.5-88.4,208.5-159.4,9.2-10.3,13.2-22.8,20.5-34.4,7.1-11.5,13.6-22.5,19.9-34.5,31-59,49.7-124.1,55-190.5,5.1-59.7-1.3-120.2-18.3-177.7-5-12.8-5.3-26-10.7-38.6-3.1-8.8-7.2-15.8-11.7-24-6-12.2-10.9-24-18.8-35.1-20.8-33.9-43.2-66.7-70.9-95.4-12.2-13-24.8-24.7-38.4-36.2-6.2-7-11.7-12.7-19.6-17.8-7.2-5.9-14.2-9.7-22.2-14.3-7.4-5.5-13.9-10.1-22.2-14.3-41.9-24.2-87.2-41.7-134.1-53.4-30.1-6-60.5-10.3-91.2-11-8.9-.5-17.3,0-26.3.1-9.2,0-17.3-2.1-26.5-1.8-5.2.5-7.7,2.3-12.9,3.2-5.2.9-8,.2-13.1,1.2-5.2,1-7.6,2.5-12.7,3.8-9,1.9-16.8,3-25.8,5.2-17.3,4-33.8,8.7-50.5,14.6-20.8,7.4-40.9,15.5-60.4,26-15.5,8.7-31,16.3-46.2,25.4-10.5,8.4-20.8,15.9-32,23.5-7.8,5.1-13.6,10.7-19.7,17.7-6.5,6.6-12.2,12.1-18.8,18.6-89.6,88.8-141,213.9-140.7,339.9h0c-.2,88.7,25.3,177.1,72.9,251.9,21.1,33.8,47.6,63.4,74.7,92.4,58.8,53.1,129.9,92.4,207.6,109.2,51.2,12.3,104.2,14.4,156.5,9.2,34.9-4,68.9-12.6,102.1-23.9,71.5-23,135.7-66.4,186-122,20.7-23.2,39.7-47.8,55.2-74.8,3.4-8.7,6-16.4,10.8-24.4,32.8-62.8,51-133,53-203.8,1.3-33.2-2.1-66.3-8.1-98.9-.2-13.7-2.7-26.3-6.3-39.5-4.4-12.8-7.7-25.2-12.8-37.9-6.4-12-10.8-24-17.3-35.9-19-34.8-40.1-68.4-66.3-98.4-11.8-13.3-23.3-26-36.4-38.1-13.5-11.6-26.3-23.1-39.7-34.8-7.5-5.3-15-8.5-22.9-13.2-14.8-9.7-30-17.7-46.1-25.1-15.7-8.2-32-13.6-48.6-19.6-33.1-11.7-67.3-18.5-102.3-21.5-17.7-1.7-34.5-2-52.3-1.4-14.8-2.6-11.5-2.9-26.1,1.6-9.1,1.5-17.2.1-26.3,1-21.1,6.1-42.5,9.9-63.5,16.4-37.5,11.8-74.1,27.4-107,49-7.7,5-14.6,8.9-22.3,13.9-10.9,7.8-20.5,16.2-31.6,23.7-7.6,5.4-12.7,11.6-18.5,18.9-9.4,9.6-18.4,18.5-27.1,28.8-70.9,81.5-110.6,188.8-110.5,296.8h0c-.3,94.3,30.5,188.3,86.9,263.9,13.2,17.9,27.6,34.2,43.3,49.9,5.8,7.3,11,13.4,18.3,19.2,53.5,45.9,117.6,79.1,186.4,94.7,85.6,19.5,176.6,12.7,258.2-19.8,66.5-24.5,125.5-67.1,171.1-121.3,25.6-30.8,47.7-64.5,63.3-101.4,3-8.8,5.2-16.6,8.7-25.2,19.1-49.7,29.3-102.7,29.6-155.9-.6-7.1-.7-12.8-.5-19.9.4-5.3,1.8-8.1,1.9-13.4-1.6-17.9-3.8-35.2-7.1-52.9-2.1-9.1-5-16.6-7.7-25.5-5.2-17.1-9.1-34.1-16-50.6-8.9-15.6-13.9-32.3-24-47.3-5.3-7.7-8.2-15.2-12.3-23.5-8.4-10.5-15.7-21-23.9-31.7-5.7-7.2-10.7-13.4-16.6-20.5-6.5-6.5-11.4-12.9-17.2-20.1-3.7-3.8-6.2-5-10.1-8.6-6.7-6.3-11.5-13-18.7-18.8-4.2-3.2-7.2-3.7-11.5-6.7-7.9-5-12.6-12.1-19.7-17.9-4.3-3-7.6-2.8-12.2-5.4-4.6-2.6-6.3-4.9-10.8-7.7-4.5-2.7-7-3.6-11.7-6.1-19.5-10.5-39.6-18.5-60-26.9-12.8-4.1-24.9-7.4-37.7-11.4-76.1-19-158.1-17.1-232.8,7.8-29.3,9.5-57.1,22.3-83.5,37.9-4.7,2.3-7.8,2.4-12.4,5-4.6,2.6-6.2,5-10.4,8.2-7.3,5.6-14,10-21.3,15.6-7.1,5.9-12.8,11.4-20.3,16.8-4.2,3.2-7.1,4-10.9,7.7-3.7,3.7-4.5,6.8-7.9,10.9-3.4,4.1-5.5,5.7-9,9.6-73.4,77.9-115,184.2-114.9,291.2h0c-.4,98.4,35.6,196.3,100,270.7,11.8,13.3,23.5,25.9,36.1,38.4,13.1,12.1,26.7,22.6,41.5,32.5,22,14.7,44.9,27.3,69.1,37.8,8.2,4.3,15.4,7.6,24.3,10.1,25.3,7.3,50.4,14,76.6,17.6,13,3.2,25.6,3.8,39,4.4,35.1,1.5,70.2,1.7,104.6-6.4,13.3-2.4,25.3-6.5,37.5-12.5,25.1-8,49.3-17.8,72.4-30.6,86.9-44.2,153.3-123.9,187.2-214.8,4.6-12.8,8.5-25,10.4-38.5,4-17.4,7.6-34.3,10.1-52,2.2-13.4,2.5-26.1,3.4-39.6,1.3-6.1,3.4-10.9,3.4-17.2-1.2-17.4-2.7-35.2-4.1-52.7-2.7-17.8-5.8-35-9.7-52.6-2-9.1-4.1-17-8.3-25.5-2.4-4.8-4.6-6.8-7-11.6-6.3-16.8-13-32.7-21.3-48.7-5.2-12.7-13.9-22.2-21.6-33.5-4.9-7.9-9.8-14.1-16-21.1-3.3-4.2-4.4-6.6-7.8-10.7-6.4-6.7-11.9-12.5-17.5-19.9-5.9-7.2-11.9-12.4-18.9-18.6-6.8-6.3-11.8-12.8-18.8-18.8-4.2-3.3-7-3.9-11.4-6.9-7.4-5.5-13.7-10.4-21.7-15.1-15.4-8.9-29.3-19.5-46.2-25.7-8.5-3.7-16-6.2-24.6-9.4-8.6-3.4-15.6-7.3-24.4-10.2-5.1-1.5-7.9-1.1-13-2.3-8.9-2.2-16.4-5-25.4-6.9-9-1.5-17-2-26.1-3.3-69.5-9.1-141.4-.1-205.7,28.1-20.4,8.6-39.5,18.8-58.1,30.7-11.4,7.3-23.3,12.4-34.2,20.4-6.7,6.3-11.5,13.2-18.5,19.2-6.8,6.3-13.4,10.9-19.9,17.6-6.2,6.9-10.4,13.9-16,21.3-11.3,13.8-21.7,27.6-31.1,42.8-23.6,37.5-40.9,78.7-51,121.8-26.5,109.7-3.3,230.4,64.1,321.2,15.4,21.7,34.1,40.1,52.4,59.3,22.7,21,48.2,38.3,75.6,52.5,11.6,6.9,23.5,11.2,35.8,16.5,4.7,2.4,6.5,5.3,11.4,7.2,4.9,1.8,8.1.9,13.2,2,8.9,2.4,16.4,4.8,25.4,6.5,9.2,1.3,16.6,4.3,25.3,7.3,5.1,1.2,7.8,1.1,13,1.8,17.6,2.3,34.7,4.1,52.5,5,26.6.3,52.7-2.7,78.7-8.3,34.7-7.1,67.7-20,97.9-38.3,27.3-14.5,52.8-31.6,75.9-52.1,64-55.2,106.3-132.9,122.7-215.5,2.8-13.4,3.9-26.1,5-39.7,1.2-9.2,2.1-17.3,2.1-26.6.2-11.7-1.6-21.7-1.5-33.3-.2-5.3.3-8.1-.3-13.3-.7-5.3-2.2-7.8-2.9-13-.7-9.3-1-17.4-3.6-26.4-2.6-8.9-4.3-16.8-6.5-25.8-2.8-8.9-6.5-16.1-10-24.7-3.3-8.6-5.9-16.2-9.8-24.6-7.8-16-16.3-31.1-26.2-45.9-11.5-19-25-36-39.2-53-5.5-7.6-11.1-13.2-18.4-18.9-6.7-6.4-12.2-12.1-19.7-17.6-11.7-6.8-20.7-15.8-31.8-23.6-14.9-9.8-29.8-18.4-45.9-25.9-8.1-4.5-15.4-7.7-24.3-10.3-8.8-2.8-16.5-4.8-25.3-7.5-8.6-3.4-16.3-5.3-25.6-6.1-51.5-9.5-104.7-10.2-156,1.1-46.9,10.6-91.7,30.1-131.5,57.1-7.9,4.7-15.3,8.2-22.9,13.4-7.4,5.6-13.2,11.2-20,17.5-7.3,6-11.9,12.6-17.2,20.3-3.4,4.1-6,5.3-9.4,9.4-5.5,7.4-9.1,14.8-14.4,22.3-39.4,53.1-64.1,116.8-71,182.6-12.8,111.7,29.9,227.9,113.1,303.7,7,5.9,12.6,11.6,19.2,18,6.9,6,13.5,10.6,21.1,15.6,15,9.5,29.5,18.5,45.7,25.7,8.3,3.9,15.7,6.7,24,10.5,4.8,2.2,6.9,4.3,11.8,5.9,5,1.6,8,.9,13,2.3,8.7,2.9,15.9,6.2,24.9,8.3,34.2,7.9,69.3,12.5,104.4,9.5,123.3-8.9,237.5-88.9,290.8-200.1,16.2-31.5,26.4-65.6,32.6-100.4,3.2-13.3,1.3-26.1,3.3-39.6.7-5.3,2.2-7.9,2.7-13.2.7-6.5-.9-10.2-.6-16.7,2.1-18.1-2.7-35.2-5.3-53-.7-5.3-.1-8.2-1.6-13.3-1.5-5.1-3.8-7.3-5.8-12.3-2-5-2.7-7.5-4.2-12.6-3-13.2-7.8-25.1-13.2-37.5-4-8.4-8.3-15.1-12.1-23.5-2.1-4.9-2.3-7.8-4.8-12.5-4.5-8-10.1-14-15.5-21.6-12.8-18.2-25.9-35.6-41-51.9-6.3-6.9-12.9-11.4-20.2-17.1-9.5-9.8-19.9-17-31.1-24.6-25.4-17.8-53.3-31.5-82.9-40.9-8.8-2.9-16.4-5.4-25.5-7.3-9.1-1.8-17.2-1.9-26.3-3-5.2-.7-7.7-1.9-13-2.2-4.7-.5-8.8,1.1-13.3.6-5.3-.3-7.8-1.6-13-2-8.6-.6-17.4,0-26.3.5-30.7,1.1-60.7,7.6-90.2,15.9-20.9,7.1-41,15.3-60.4,25.9-23.2,13-43.9,29.1-65.5,44.5-20.7,16.9-38.2,37.4-51.6,60.5-3.7,8.6-7.1,15.8-12.4,23.6-36.6,63-52.6,137.7-44.6,210.2,9.6,92,59.5,178.7,134.7,232.6,12.9,12.4,28.4,20.3,44.4,27.9,8.2,4.1,15.5,7,24,10.6,8.2,4.2,15.6,6.9,24.6,9,17,4.7,33.5,9.3,50.9,13,9.1,1.4,17,2.3,26.1,3.5,26.4,3,52.7,0,78.8-4.6,122.9-23,225.3-118.8,257.3-239.5,4.5-17.3,8.2-34.4,10.2-52.1-.4-12.4,0-24.9.8-37.2.1-29.4-3.7-59.2-12.2-87.5-3.4-13.1-10-24-14.1-37-5.5-17-11.4-33.6-22.7-47.6-3.1-4.3-5.1-6.1-8-10.5-4.6-8.1-8.7-14.9-15.2-21.6-45-54.1-107-94.8-176.4-109-17.7-3.9-35.6-5.5-53.6-5.4-17.1-.3-34.2-.4-51.3,1.5-35.1,4.1-68.5,15.8-99.9,31.6-27.8,13.5-51.8,32.7-74.7,53.3-6.7,6.3-12.8,11.5-19.6,17.7-12.6,12.6-24,26.1-32.6,41.8-2.2,4.9-2,8.1-4.1,13-6.2,11.9-12.5,22.8-17.5,35.4-12.1,28.4-19.9,58.3-23.4,88.9-14.9,121.7,46.8,244,154.5,303,10.8,8,22.9,11.7,35.3,16.9,32.5,12.7,66.9,19.3,101.6,20.8,96.7,7.1,192.2-45.2,248.8-122.1,26-35.6,44.4-76.6,53.2-119.8,2.1-9,2.7-17,3.1-26.3.5-9.2,1.8-17.1,2.7-26.3,5.5-67.7-17.5-136.5-58.7-190.1-16.2-21.3-36-39-56.9-55.4-38.4-29.9-84.6-49.2-132.8-55.8-65.7-9.3-133.5,6.7-189.5,41.8-22.9,13.6-41.7,32-60.2,51-18.1,19.6-35.9,39.2-47.9,63.3-6.7,12-8.3,25.1-12.4,38-6.7,21.1-12.1,42.2-14.4,64.3-10.3,85.2,20.7,173.9,82.9,233.2,9.5,9.4,19.4,17.1,30.1,25.1,4,3.4,5.4,6,9.7,9,7.8,4.6,15.4,7.4,23.3,12,8,4.4,15.4,7.1,23.9,10.6,4.7,2.2,6.7,4.4,11.6,6.3,8.7,2.8,16.6,4.1,25.2,7.2,8.7,3.4,16.4,4.9,25.7,5.3,9.2.9,16.9,2.8,26,4.1,9.2,1.2,17.2.4,26.3-.9,13.3-1.7,25.9-2,39.1-4.9,82.3-15.5,154.9-72,192.5-146.4,43.8-85.9,42.5-190.7-9.9-272.6-42.5-66.9-116.2-113.6-195.3-121.2-62.1-6.6-122.8,11.6-173.9,46.9-11.3,7.3-20.4,16-30,25.4-16,15.1-29.7,31.9-41.8,50.3-10.1,14.7-17.6,30.2-22.4,47.4-4.5,12.6-9.3,24.3-11.7,37.5-23.3,99.4,16.1,205,98.9,264.7,15,9.3,29.8,17.8,46.3,24.3,16.3,6.8,33,10.4,49.6,16.5,13,3.8,25.7,3.5,39,4.9,9.2,1.7,17.1,2.8,26.4,1.2,13.3-2,25.9-4.2,38.8-7.7,5-1.7,7.1-3.7,12.2-5.2,5.1-1.5,8-.9,13.1-2.3s7.4-2.8,12.2-4.9c68.9-29.9,123.4-91.2,143.2-163.9,35.5-118.6-22.1-242.6-136-291.3-56.9-24.3-123.2-24-179.8,1.1-40.1,17.9-76,45.6-100.9,82-9.9,14.7-19.2,29.5-24.2,46.6-2.9,8.8-7,15.7-10.3,24.2-1.6,5-1.3,7.8-2.4,13-2.9,13.2-7,25.3-5.8,39,0,10-4.2,21.2-3.5,32,.7,13.9,2.9,27,7.8,40,14.2,50.5,44.7,96.6,88,126.6,11.8,6.6,20.4,16.3,32,23.1,12.1,5.7,24,10.8,37.3,12.9,5.2.7,8.1-.3,13.3.3,8.9,1.7,16.5,3.6,25.6,3.9,9,1.3,16.8.8,25.9.3,9.1.5,17.1,1.7,26.2.5,13.1-2.2,25.3-5.6,38.2-9.1,44.9-16.9,85.6-46.6,112.5-86.7,33.2-49.1,48.2-111.8,36.2-170.2-20.9-106.6-123.8-184.3-232.4-169-64.6,9.2-125.3,50-155.5,108.1-4.8,7.9-7.3,15.4-9.8,24.2-1.8,4.9-3.4,7.1-5,12-1.6,4.9-1.1,7.8-3,12.7-1.8,4.9-4.8,7-6.1,12-1.3,5.1,0,8-.5,13.3-1.1,9.8-4.4,18.3-4.9,28.1h0c0,7.7,3,16.5,3.8,23.7.8,7.7,2,15.6,4,23.4,7.4,30,21.5,57.8,41.6,81.1,6.4,13.4,4.2,11.9,17.7,19.3,10.2,8.6,19.9,16.6,32,22.4,11.5,6.6,22.2,13.2,35.1,16.8,4.9,1.6,7.6,1.6,12.5,3.6,4.9,2,6.9,4.6,11.9,6.3,17,3.8,34.9,4.7,52.3,2.7,13.3-1.3,25.9-2.8,38.8-6.2,8.9-2.3,16-6,24.2-10.2,24.2-10.2,46.5-24.6,64.8-43.7,60.9-63.5,76-163.5,27.1-238.5-13-17.9-26.4-35.3-44.3-48.6-56.1-43.8-136.8-49.9-198.2-13.6-32.7,19-64.6,50.3-77.2,86.6-6.5,20.9-13.6,41.3-15.6,63.2-1.9,23.9.8,48.1,9.2,70.6,4.2,12.7,10.5,23.4,17.5,34.7,3.3,9.7,4.4,16.2,13,22.9,3.9,3.5,7,4.1,11.1,7.4,7.2,5.7,11.8,12.3,18.6,18.3,7.3,5.4,14.2,9.6,22.4,13.5,8.5,3.2,16.7,3.5,25.1,6.8,9.3,5.4,12.7,8.9,24.3,10,9,1.3,17.1.7,26.1.3,13.2-.4,25.8-.9,38.7-4.3,12.8-3.4,23.4-10.5,36-14.7,61.1-28,100-95.7,95.9-162.5-1.4-31.4-13.9-60.9-31.9-86.2-5.6-7.5-12.9-11.5-19.9-17.3-3.8-3.7-4.6-6.6-8.3-10.4-6.6-6.4-13.3-11-21.1-15.8-53.6-31.5-126.1-25.1-173.2,15.5-13.5,11.5-25.4,24.3-34.7,39.4-5.1,7.8-6.6,15.8-10.1,24.3-2.5,4.7-6.2,6.2-8,11.1-1.8,4.9-.2,8.2-.9,13.5-1.7,9.9-3.6,18.8-3.8,28.8-.4,21.2,1.2,32.5,5.1,47.6,2.3,7.7.6,10.1,4.9,20.7,4.3,11.5,7.3,13.3,15.8,21.1,5.5,7.3,9.1,14.4,15.4,21.1,17.8,20.2,41.4,32.6,67.7,38.1,17.3,2.7,34.6,4.9,51.9,1.7,9.1-1.3,16.3-4.5,24.7-8,4.9-1.7,7.5-1.9,12.3-3.8,28.2-11.6,52.2-32.8,67.8-59,21.1-36.1,26.8-81.8,11-121-3.9-8.3-9.4-14.3-14.4-21.8-4.8-7.7-7.5-15.7-13.5-22.5-6.5-6.3-14.5-9.1-22.3-13.7-7.4-5.3-13.6-9.4-21.8-13.4-4.5-2.6-6.5-4.9-11.3-7-24.7-8.3-52.4-7.6-77.3.3-29.2,9.3-53.6,30.1-70.2,55.5-11.2,18.7-16.1,39.9-18,61.5-4.2,63.9,29.7,116.4,94.1,126.8,18.3,2.7,33.3,1.4,50.5-5.7,8.6-2.2,16-4.2,23.8-8.7,39.6-20.4,65.8-64.7,62.5-109.4-.5-9.3-2.2-17.2-5-26-3.4-13.3-9.9-24.7-21-32.8-16.7-12.6-9-20.3-28.1-26.7-4.9-1.9-7.8-1.8-12.8-3.1-8.6-2.3-15.8-4.6-24.7-5.7-12.4-1.5-25.4-.9-37.8,1.4-12.5,3.5-23.6,9.1-34.2,16.6-30.7,15.7-44.6,51.5-43.5,84.6h0c-2.9,44.6,33.3,84.6,76.8,89.4,20.8,2.5,43.3-4.8,61.1-15.2,31.5-19.2,49.5-59,39.9-95.1-1.2-5-2.1-7.4-4-12.3-1.8-4.8-2-8.1-5.2-11.9-3.3-3.9-7.1-4.2-11.1-7.4-8.8-8.8-18.6-16.2-30.4-20.1-8-2.7-15.7-5.7-24-7.7-24.2-.2-52.8,14.2-65.5,35.1-19.2,28.3-17,70.6,10,93.2,13.3,11.5,31.3,17.4,48.7,14.6,21.1-3.9,40.8-16.7,50.5-36.1,11.2-21.1,7-47.9-9.8-64.9-6.3-9-10.7-11.6-21.7-11.7-8-1-16-.4-24.2.9-4.9.6-8,0-12.7,1.9-11.9,5.5-20.5,16.8-24.4,29.3-12.1,34.1,20.2,67.5,53.5,49.4,10.6-6.4,18.3-17.9,19.4-30.2.6-9.7-6-18.2-13.6-23.1-15.9-9.5-34.7.6-35.2,19.4-.7,8.4,9.4,15.1,16.6,10.5,3.7-2.1,3.9-5.1,1.5-6.6-3.5-1.5-7.1-5.1-5.9-9.3,2.5-12.4,20.7-12.8,26.4-2,7.6,14.3-5,33.5-20.2,36.2-22.5,5.5-40.7-17.1-33.8-38.5,3.3-13.8,13.2-24.8,26.8-29.3,9-4.9,18-6.3,27.7-2.4,14.2,4.4,24.9,16.9,28.4,31.1,3.6,25.6-9.8,55-35.4,63.6-26.4,10.1-58.5-3.4-70.2-29.1-12.9-27.8-.3-62.8,24-80,7.9-5.9,15.7-8.3,25.1-11.2,15.8-8.4,26.2-6.2,41.6,1.9,15.9,4.8,24.1,13.9,30.5,29,7.1,10.9,11.9,23.1,10.6,36.2.3,34.7-21.7,69.4-55.2,80.5-53.4,15.2-106.7-22.8-108.8-79.6h0c-.2-23,8.9-45.4,23.3-63.2,8.2-11.5,18.1-21.2,31-27.3,17.1-7.2,36.1-11.3,54.5-7.3,9.3,2.9,16.2,6.7,25.9,9.3,5.3,1.7,8.6,1.6,13.6,4.1,5,2.5,7.1,4.8,11.3,8.6,4.2,3.8,6.7,5.6,9.6,10.4,2.9,4.8,2.6,8.5,5.1,13.5,2.5,5,4.9,6.7,7.3,11.6,23.7,53.6-4.8,122.2-59.2,143.9-17,8.6-35.9,6.4-54.2,4.7-53-7.3-94.2-54.6-96.8-108.3h0c-1.4-25.1,7.4-47.4,21.2-68,14.6-23.2,36.3-41.5,62.7-49.5,17-5.1,34.6-5.8,52-4.3,15.9-1.7,26.7-.9,41,7.2,11.5,4.7,13.8,8.1,21.1,17.5,3.8,3.9,5.6,5.6,10,8.9,4.4,3.3,8,3.7,12,7.5,10.1,10.1,12.9,24.2,17.1,37.3,16.3,45,5.7,97.6-25,134-11.8,14.2-25.9,25.6-42.5,33.7-8.3,4.8-15.9,8.4-25.4,10.1-13.7,2.1-26.9,2.2-40.7,2.3-13.7-.9-26.2-4.9-39.1-9.4-8.9-3-16.3-6.4-24.1-11.7-15.2-10-29.1-21.2-40.4-35.6-6.2-7.3-11.7-14-14.7-23.2-2-6.9-1-13.9-3.9-20.6-1.6-5.6-6.6-8.8-7.6-14.3-1.1-5.4-1.4-9-1.3-19.4,1.2-24.1,1.4-40.4,11.6-60.4,15.5-33.2,40.9-61.5,74.4-77,28.4-13.6,60.9-18,91.8-12.2,9.3,1.6,17,4.2,25.8,7.5,13.3,4,25.4,9.5,37.4,16.5,4.6,3,7,4.6,10.7,8.7,3.7,4.1,4.6,7.2,7.8,11.6,3.2,4.5,5,6.4,8.4,10.7,9.9,10,15.7,22,20.2,35.3,5,13,8.2,25.7,9.8,39.5,8.5,73-32.9,141.9-99.5,171.6-8.9,3.5-17.4,4.4-26.8,5.9-9.3,1.7-17.4,3.2-26.9,3.5-9.5,0-17.6-.7-27.2-.6-5.5,0-8.6,1.1-13.9-.2-5.3-1.3-7.4-4.2-12.5-6.4-5-2.2-7.7-2.6-12.7-4.6-12.9-5.1-23.8-12.3-35.6-19.6-19.9-12.8-26.3-18.6-36.8-39.7-9.6-9.8-10.7-8.2-15.9-22.4-7.9-16.9-13.6-34.4-15.1-53-1.8-17.3-1.1-34.3,1.9-51.5,1.2-9.6,2.6-17.9,6.4-26.8,5.5-12.9,12.9-23.9,20.8-35.4,35.1-58.1,107.1-88.6,173.6-77.6,30.9,4.9,60.3,17.8,84.3,37.9,7.7,5.5,14.3,10.3,20.5,17.6,29.6,37,46.3,84.5,42.6,132-2.9,64.1-40.8,123.3-96.2,155.2-11.8,7.4-24,12.4-37.8,14.7-21.9,6-44,9.7-66.6,6.5-13.8-.7-26.2-4-39.6-7.1-9.6-.8-18.2-1.2-26.4-6.8-4.7-2.8-6.2-5.8-10.7-9-4.5-3.2-6.9-4.2-11.6-6.9-14.8-7.4-22.3-11.5-30.7-26.2-3.4-4.3-4.9-6.4-9-10-4-3.7-7.5-4.4-11.2-8.4-18.6-26-30.9-56.6-35.5-88.3-3.7-25.1-3.3-50.6,2.2-75.4,5-22.6,16-43,28.7-62.1,36.6-58.4,101.6-93.6,170.5-92.7,116.4.3,205.9,97.4,200.9,213-1.3,77.1-48.6,150.2-116.9,185.3-12.1,6.7-24.8,9.6-37.9,13.6-17.1,6.2-34.7,7.3-52.7,8.1-18,.7-35.4-1.4-53.1-4.9-13.9-1-13.6-1.8-25.3-8.3-17.4-5.1-34.7-9.8-49.5-20.9-40.8-28.6-71.8-71.2-85.4-119.3-4.3-13.3-4.2-26.4-6-40.1-2.4-20.4-.9-40.2,1.4-60.6-1.3-11.9-2.6-15.6,2.5-27.4,1.8-5.2,3.5-7.5,5.2-12.7,1.8-5.2,1.5-8.3,3.6-13.3,2.1-5,4.4-7,7.1-11.8,4.4-8.5,7.9-15.8,13.4-23.7,20.3-29.8,46.1-56,77.5-74.2,114.8-64.5,262.4-20.8,319.7,98.8,45.3,94.7,24.1,208.5-52.4,280.5-26,25.4-58.1,42.9-92.5,53.9-5,2.1-7.2,4.2-12.4,6-9.1,2.7-17.3,3.5-26.6,5.3-22.5,4-45.1,3.7-67.7.7-18.1-2.7-35.4-7.2-52.6-13.7-5.1-2-7.9-2.3-12.5-5.3-4.6-3-5.6-7-10.4-9.6-4.8-2.6-8.6-1.1-13.6-3.2-5-2.2-6.9-4.4-11.3-7.5-26.4-18-49-40.7-67-67.1-47.3-68.8-53.9-151.9-26.9-229.8,3-9.1,7.1-16.4,11.8-24.8,6.4-12.4,12.8-23.8,21-35.1,26.4-36.8,62.6-66.5,104.1-84.5,90.5-39.9,203.2-22.5,275.7,45.4,124.7,116.5,106.7,318.6-33,414.8-22.3,15.2-46.8,26.3-72.1,35.4-9.1,2.2-17.1,3.8-26.1,6.2-9.1,2.4-17.3,2.6-26.6,2.4-18,1.7-35.3.7-53.3,1.6-9.6.3-17.2-2.6-26.2-5.5-5.2-1.1-8.2-.3-13.3-1.6-5.2-1.3-7.2-3.7-12.5-4.8-5.3-1.1-8.6.5-13.9-.7-9-2.7-16.1-7.3-24.6-11.3-8.3-4.4-15.8-7.9-23.6-13.2-4.4-3.2-5.9-5.8-10.3-8.9-8-5-15.5-8.5-22.7-14.6-41.9-34.9-72.1-83.1-86.7-135.6-14.2-50.6-13.2-104.9,1.4-155.2,2.6-9.2,4.7-17.2,8.7-25.9,4.5-8.4,9.7-15,14-23.4,18.3-41.4,48.1-77.6,86.2-102.1,25.2-18.9,54-32.4,84.4-40.4,81.7-23.5,172.8-7.7,242.1,41.4,47.4,34.1,83,83.7,102.4,138.6,14.4,40.6,18.7,84.2,15.1,126.9-16.1,135.4-118,242.5-253.6,261.7-18,2.3-35.5,5.5-53.7,4.4-13.7-1.8-26.5-3.4-40.3-4.2-9.4-1.4-17.2-4.1-26.2-6.6-17.8-4-34.1-11.3-50.4-19.4-4.8-2.6-6.8-4.5-11.6-7-8.7-3.8-16.2-7.2-23.8-13-116.3-78.7-160.7-229.1-111.8-359.7,3.5-8.8,6.1-16.7,10.6-25,5.5-7.7,11.2-13.9,15.8-22.1,11.9-19.2,23.6-38,37.7-55.7,17.6-20.7,39-37.2,62.1-51.2,45.1-28.9,98.1-44,151.5-46.6,48.7-1.9,97.9,8.5,142.2,28.8,28.5,13,55.3,29.3,78.1,50.9,16,15.9,31.2,32,43.1,51.2,7.5,11.5,15.9,21.4,22.1,33.7,8.8,16,13.5,33.1,21.4,49.5,5.1,12.9,8.3,25.6,9.3,39.5,4.8,20.3,5.8,41.2,6.9,61.9,0,9.1,0,16.8-.8,25.8-1.9,9.3-4.1,17.3-5.2,26.7-19.3,115.6-105.9,217.6-218.4,252-25.6,8.2-51.7,13.4-78.6,15.1-13.6.5-26.4-.3-40.1-.2-9.4-.4-17.6,0-26.9-.3-9.3-1-17.3-3.1-26.4-5.2-30.6-7.4-60-19.2-87.1-35.2-8.5-4.1-15.7-8-23.3-13.7-96.2-66-150.2-184.7-138.7-300.6,4.4-49.9,19.8-98.6,44.9-141.9,4.7-8.4,10.5-14.3,17.2-21.1,8.7-10.6,16.2-21.1,25.3-31.4,11.9-13.7,22.6-28,36.9-39.3,41.9-34.1,92.4-56.3,144.7-68.8,26.5-5.2,53.3-6,80.2-6.4,13.5,2,26.5,2.6,40,4.7,5.2,1.2,7.7,2.8,12.9,4.2,13.3,2.9,25.7,5.9,38.7,10.3,33.7,11.9,66.5,27,95.2,48.5,14.6,10.8,27.5,22.8,40.2,35.8,6.4,6.9,12.4,12.5,18.7,19.5,6,7.3,10.1,14.4,15.6,22.2,5.2,7.9,10.8,14.1,16,22,2.8,4.7,3.3,7.5,5.8,12.3,7.1,12,12.2,23.9,17.5,36.8,6.2,12.6,10.2,25.1,11.7,39.1,2.6,13.7,7.5,26,8,40,1.1,13.9,2.5,26.8,2.7,40.8-.3,16.2-1.7,31.4-3.8,47.5-8.4,81.2-48.8,157.7-107.8,213.6-45.6,43.4-103.3,73.2-164.9,85.8-26.3,5.6-52.8,8-79.7,7.7-22.5.3-44.6-1.6-66.7-6.1-13.7-2-26.2-5.3-38.8-11.1-31-7-57.9-24.7-84.2-41.9-31.2-18.8-57.2-44.5-79.5-73.1-52.5-67.4-79.1-153.9-74.1-239.2,3.7-67.8,26.2-134.7,65-190.4,6.3-7,12.6-12.4,18.4-19.9,5.5-7.7,11-13.6,18.2-19.7,9.3-10,19-18.4,28.6-28.1,6.6-6.7,12.3-12.6,19.5-18.6,36-26.8,76.8-47.2,120.2-58.9,30.5-7.5,61.7-13,93.1-11.3,13.7-.8,26.6-.1,40.3,1.4,13.6,1.7,25.9,6.1,39.2,9.1,13,4.1,25.5,6.9,38.3,11.8,29.7,10.2,57.1,25,84.3,40.4,7.8,5.2,13.7,10.9,21,16.8,7.4,5.8,13.9,10.7,20.8,17.1,12.4,13.2,26.1,24.4,37.3,38.8,9.2,10.3,16.6,21.1,24.6,32.3,4.7,8.2,8.1,15.7,12.9,23.9,10.8,20,20.1,40.5,25.2,62.7,4.9,13,5.9,26,9.3,39.4,2.7,13.5,4.8,26.3,5.6,40,1.3,9.3,2.5,17.4,2.4,26.9-.4,11.8-.7,22.1-.6,33.8-3.7,54.1-19.2,107.1-44.5,155.1-21.9,39.3-49.1,76-83.3,105.5-50.3,44.7-114.1,72.5-179.9,84.5-22,4.1-44,5.6-66.3,6-26.9.9-53.4-1.5-79.7-7.2-5.3-.8-8.2-.4-13.4-1.5-9.1-2.3-16.9-4.9-25.6-8.3-4.9-2.3-6.8-4.9-11.8-6.8-5.1-1.8-8.3-.8-13.4-2.4-8.9-3.1-15.8-7.6-24.3-11.6-24.6-11.6-46.4-27.1-67.5-44.1-32.9-24.1-59.3-55.8-81.3-89.9-47.7-74.7-67.9-166-57-253.9,7-58.6,27.2-115.5,58.8-165.4,7.5-11.7,14.8-22.5,23.5-33.2,6.2-7.1,12.5-12.4,18.9-19.4,6.3-7,11-13.9,18.2-20,4.2-3.4,7.2-4.1,11.6-7.2,7.4-5.9,13.5-11,20.6-17.2,6.4-7.1,12-13,20.1-18.1,43.8-31.6,95.6-51.7,148.7-60.7,13.5-2.8,26.3-4.3,40.1-4.7,22.4-2.7,44.8-2,67.2.7,18.2,1.6,35.1,6.5,52.9,10.1,17.1,6.2,34.2,10.2,50.7,17.8,29.3,11.8,56.2,27.5,82.4,45.1,11.1,8.1,20.3,17.3,31.5,25.3,6.5,6.8,11.9,12.9,19.3,18.8,7.3,6.1,12.7,12.2,18.5,19.7,6.6,6.8,12.1,12.9,17.3,20.8,8.2,11.2,15.5,22,21.3,34.7,5.1,8,9.3,15,13,23.8,3.7,8.8,7.9,15.8,12.2,24.3,5.1,12.9,7.4,25.9,11.2,39.2,3,9,6.3,16.6,7.8,25.9.8,5.4,0,8.3.9,13.6,1,5.3,2.9,7.7,4,13,2.2,20,5.9,40,4.1,60.1-.1,5.6-.7,8.6-.3,14.2.4,5.5,1.9,8.3,2.1,13.7-.7,18.3-3.5,36.1-8.2,53.8-9.5,35-19.5,69.7-36.1,102.1-24.3,48.3-58.3,91.6-99,127.1-33.6,29.9-72,54.9-114.4,70.1-17.7,3.8-34.1,10.2-51.9,14.2-26.2,6.3-52.6,9.6-79.5,11-13.7,1.1-26.6,2.2-40.3.8-13.7-.8-26.5-2.8-40.1-4.7-13.8-.7-26.4-4.1-39.6-8-9-2.8-16.6-5.7-25.4-9.1-8.5-4.1-16.2-6.6-25.3-9.3-24.9-10.7-48.3-24-70.4-39.7-18.9-12.7-35.3-27.7-52.8-42.1-48.7-47.5-85-107.5-104.9-172.6-31.9-103.1-21-218.1,28.1-314,12.3-24.3,26.8-47,43.5-68.5,8.6-10.8,16.6-21.1,27-30.2,4-3.6,6.7-4.7,10.5-8.5,6.1-7.2,11.1-13.7,18.6-19.5,10.1-9.4,20.9-16.5,31.8-24.9,28.4-22.2,60.8-38.5,94.3-51.3,8.7-3.9,16.7-5.4,25.9-7.3,12.8-5.2,25.3-8,38.8-10.9,35.2-7.3,71.1-9.2,106.9-7.2,13.7,1,26.5,2.5,40,4.6,9.1,2.3,16.8,4.8,26.1,6.2,13.7,1.6,25.8,6.3,38.7,11.1,26.1,7.3,49.8,19.8,72.9,33.8,4.7,2.6,7.4,3.3,12,6.1,8.2,4.6,13.9,10.8,21.5,16.2,4.6,2.9,8.2,2.5,12.3,5.9,4.2,3.4,4.5,7.4,8.5,11,4.1,3.6,7.4,3.7,11.8,6.8,7.9,5.4,12.3,12.5,18.8,19.4,4,3.7,7.1,4.4,11.1,8,4,3.6,5.5,6,9.1,10,12.6,13.3,22.4,28,32.9,42.9,2.8,4.6,3.4,7.5,6.2,12.1,7.9,11.3,16,21.7,22,34.1,3.8,8.7,5.1,17.1,9.1,25.7,2.4,4.9,4.8,6.8,7.2,11.6,2.4,4.9,2.7,7.7,4.6,12.8,5.5,12.8,8.9,25.4,10.5,39.3,1.2,5.3,3.2,7.6,4.2,12.9,1,5.3.3,8.2.9,13.6,1.9,13.7,4.4,26.4,5.6,40.1,1,12.1.7,24.5.7,36.5,0,4.1,3,6.4,2.9,10.8-.2,5.4-.4,8.1-.8,13.6-.9,18.3-2.9,35.9-6.1,54-4,22.4-9.7,44.2-17.4,65.6-3.8,8.7-7.6,16-11.3,24.7-12.8,28.9-27.4,56.6-45.7,82.4-28.6,40.3-63.5,75.7-103.6,104.6-25.6,18.3-52.2,34.9-81.3,47-86.6,37.2-185.8,43.1-276.5,17.9-13.3-3.5-25.2-8.5-37.8-14.1-13.3-3.6-24.9-9.2-37.3-15.2-36.3-18-69.4-41.4-99.4-68.7-28.5-22.4-50.8-51.4-70.9-81.2-46.8-71.1-72-156.3-71.8-241.4h0c0-89.3,27.2-178.5,77.3-252.5,10.2-15.2,21-29.2,33-43,9.1-10.4,17.7-20.2,28.6-28.7,7.7-5.6,13.3-11.5,19.7-18.5,7-6.3,13.9-10.8,21.4-16.5,4.3-3.3,6.1-5.4,10.7-8.3,8.2-4.6,16-7.4,23.6-13.1,7.3-6,13.5-11.4,22-15.8,59.5-32.1,126.2-49.2,193.6-51.7,85.2-2.6,171.6,20,243.4,66,11.7,7.3,21.6,15.7,33.6,22.5,4.4,3.1,6.1,5.4,10.4,8.7,4.3,3.3,7,4.2,11.2,7.7,12.5,13.3,26.8,23.9,39.1,37.5,18.4,20.2,35.3,41.2,49,64.8,5.3,7.8,10.5,14.3,14.3,23.1,2.1,5,1.6,8.4,4.1,13.2,2.5,4.8,5.6,6.3,8.4,10.9,6.4,9.5,5.9,15.7,7.4,26.4,15.1,33,23.3,68.2,29.1,103.9,1.3,5.3,3.2,7.8,4.3,13.1,2,13.7,2.1,26.9,2.4,40.8-.3,19.5-.4,38.2-2.5,57.6-5,49.5-18,98-38.3,143.3-3.5,8.9-8,15.7-13.5,23.4-19.8,35.2-42,68.9-69.6,98.5-51.4,55.8-116.3,99.4-187.6,125.4-84.6,29-177.9,32.1-264,7.6-47.2-13.7-92.7-33.9-133.2-61.9-14.8-10.4-29-20.7-42.6-32.7-9.9-9.5-19.9-17.7-30.3-26.7-100.2-101.7-147.7-251-126.6-392.1,11.4-80.6,43.6-158,93-222.7,11-14.5,22.5-27.9,35.1-41,9.5-10.1,18.7-19.2,30.4-26.6,7.5-5.7,12.8-12,19.7-18.4,7.1-6.2,14.6-9.7,22.5-14.8,13.7-12,28.9-21,45-29.5,20.1-10.4,40-20,61.3-27.4,25.4-9.1,51.2-16.1,77.8-20.8,9.3-1.1,17.6-.2,26.8-1.5,5.3-.9,7.7-3.6,13.1-3.8,5.3-.2,8.3,3.2,13.6,2.9,5.4-.3,7.9-3.6,13.2-4.5,40.3-.9,80.7,2.8,119.8,12.9,22,4.6,43.3,11.1,64.1,19.8,16.8,6.8,33,13.7,48.5,23.1,16,8.5,31.6,16.8,45.4,28.7,7.5,5.7,14.5,9.8,22.2,15.2,7.3,5.9,13.8,10.9,21.3,16.5,30.6,26.8,57.5,57.3,80.2,91,15.5,22.4,27,46.8,39.2,71.1,1.8,5.1.9,8.5,2.5,13.7,3.6,8.7,7.4,15.9,10.2,25,2.7,9.1,6.5,16.4,10.5,25,4.4,13.1,6.7,26,9.6,39.5,10.2,51.1,12,103.6,5.6,155.3-7.2,58.4-25,115.3-52.3,167.5-4.6,8.3-8,15.8-13.2,23.6-3.2,4.4-5.9,5.9-9.2,10.2-3.3,4.3-4.5,6.7-7.5,11.2-49.9,74.4-120.8,134.2-202.1,171.6-44.1,22.4-92.2,35.2-141.3,40.4-102.4,13-208.1-11.7-296.5-64.1-23.3-13.8-45.1-29.3-65.8-46.7-10.8-8.6-19.2-18.4-29.5-27.6-11.3-8.2-19.6-18.2-28.5-28.7-75.1-88.1-116.9-203.3-116.4-319h0c0-104,32.9-207.7,93.2-292.5,15.7-22.2,33-42.8,52.2-62.2,9.8-9.8,18.8-19.2,30.6-26.5,7.8-5.4,13.7-10.9,20.6-17.3,10.4-9.1,21.4-15.9,32.9-23.5,12.5-6,22.1-14.9,34.3-21.4,15.9-8.7,32-15.9,48.8-22.9,25.1-10.1,50.6-18.1,77.1-24,13.5-3,26-5.9,40-5.4,5.4-.5,7.9-1.8,13.3-2.1,5.4-.3,8.2,1,13.5.6,9.3-1.3,17.2-4.2,26.6-4.8,5.4-.4,8.1,0,13.5,0,45-.4,89.5,6.7,132.8,18.7,13.2,3.9,25.7,7,38.5,12.1,13.1,4.4,24.4,10.6,37.3,15.6,8.7,3.7,15.6,8,23.6,12.9,12.3,6.2,22.7,13.9,34.2,21.4,8.5,4.1,15.6,8,23,14.1,7.8,5.4,14.4,10.1,21.8,15.9,118,94.5,186.3,244.4,184.8,395.1-.2,99.3-30.1,198.2-84.5,281.3-6.9,12.1-16.4,21.1-25.6,31.3-24.7,31.8-52.8,60.7-84.3,85.8-38.3,30.7-80.6,56.2-125.9,75-32.7,14.6-66.7,25.6-102.2,31.2-151.1,27.5-309.1-19.7-423.1-122-10.5-8.9-18.8-18.8-28.7-28.4-7.4-6-13.4-11.4-19.2-18.9-41.2-47.9-73.4-103.2-94.7-162.7-18.3-51.1-28.6-104.9-30.3-159.1-.5-6.3,0-11.3-.3-17.6.8-8.2,12.4-7.3,10.7,4,.2,31.1,3.2,61.8,9,92.4,13.2,69.5,41,136,81.3,194.2,12.6,18.3,26.3,35.2,41.1,51.7,5.4,7.6,10.1,14.1,17.2,20.2,63.7,61.7,140.9,106.3,227,128.2,46.7,12.2,95,16.7,143.2,14.6,39.6-.4,78.3-8,116.5-18.2,72.9-17.8,140.3-55.5,196.1-105.4,16.5-15,31.9-30.4,46.5-47.4,8.8-10.4,17.4-19.9,23.7-32.1,6.2-12.1,14-22.2,21.1-33.8,11.7-18.9,21.9-38.2,31-58.5,99.3-221.9,30.6-476.5-168.4-616.7-9.8-9.6-21.2-15.3-33.3-21.5-8-4.8-15.1-8.2-23.7-11.7-8.4-3.8-15.4-7.6-23.7-11.5-8.5-3.4-16.1-6-24.6-9.5-16.7-6-32.8-11.9-50.2-15.9-8.8-2.8-16.6-4.2-25.8-5.4-21.5-4.5-43.4-6.7-65.2-8-13.3-.8-26-.9-39.4-.4-9.2,0-17.3-2.1-26.5-1.9-5.3.4-7.8,2.3-13,3.1-5.2.9-8,.2-13.1,1.2-5.2,1-7.6,2.5-12.8,3.7-9,1.8-16.9,2.9-25.8,5.1-17.3,3.9-33.9,8.5-50.7,14.2-16.8,5.7-32.7,12.2-48.9,19.5-16,7.9-31.2,16-47.3,23.5-18.4,12.5-36,25.3-54.4,37.8-7.4,5.6-12.5,12-18.8,18.8-19.6,18-37.7,37-54.2,57.9-134.6,168.5-144.1,412.3-17.7,588.1,10.4,14.5,21.2,28,33.1,41.3,6.6,6.6,11.5,12.9,17.1,20.3,9.1,10.1,19.5,17.6,29.5,26.5,17,14.3,34.4,27.3,53.3,39,104,65.7,234.6,87.1,354.3,59.6,29.9-7.4,59.4-15.9,88-27.5,44.6-19.4,86-45.9,122.3-78.3,23.2-20.8,44.3-43.5,63.1-68.3,8-11,15.9-21.2,22.6-32.9,2.4-4.8,2.5-7.8,4.8-12.7,29.4-49.6,49.9-104.2,60.1-160.9,12.2-67.6,10.4-137.8-7.5-204.2-3-8.9-4-16.9-5.4-26.2-2.1-9.1-5.4-16.5-8.6-25.2-1.8-5-1.9-7.9-4.5-12.6-2.5-4.7-5.5-6.3-8.1-10.9-3.8-8.4-6.3-16.1-11.2-24-17.2-30.9-36.8-60.2-59.7-87.1-23-26.8-49-50.5-76.1-73-7.1-6-14.1-9.8-22.3-14.1-7.7-5.1-14.3-9.4-22.5-13.7-30.4-17.7-63.2-30.2-96.6-40.9-33.2-10.2-67.6-15.5-102.2-17.7-13.7-1.1-26.6-.7-40.4-.5-5.3-.6-8.1-3.6-13.3-3.3-5.2.3-7.6,4-12.9,4.8-5.2.7-8.1-1.4-13.3-1.1-5.3.3-7.8,1.4-12.9,2.6-17,5.1-34.1,7-51.2,11.9-33.9,9.1-66.7,21.7-97.6,38.3-15.6,8.5-30.2,17.7-45.9,26-7.4,5.5-12.8,11.5-20.4,16.8-4.3,3.1-6.9,4-11.2,7.2-11.5,7.5-18,18.9-28.4,27.7-37.8,37.1-68.9,80.6-92.1,128.2-55.4,113.2-62.7,249.2-17.4,367,21.9,57.7,55.6,110.7,98.6,154.9,13.7,17.6,31,31,48.4,44.6,111.5,85.5,264.2,112.4,398.3,70.8,90.6-26,168-78.5,225.3-153.5,16.1-21.3,31-43.2,42.3-67.4,4-13,9.7-24.4,15-36.9,22-53.1,33.6-110.3,34.6-167.8.4-19-1.8-37.4-3.4-56.3,0-5.4,1.1-8.2.9-13.6-.2-5.4-.9-8-1.8-13.2-4.1-22.1-9.4-43.4-16.3-64.7-3.2-8.7-4.7-16.9-8.5-25.4-2.6-4.7-5.8-6.2-8.6-10.8-2.8-4.6-3.7-7-5.6-12-1.8-5-1.1-8.4-3.5-13.1-2.4-4.7-5.5-6.1-8.5-10.5-5.2-7.7-8.3-15.1-13-23.1-7.5-11.2-15.1-21.5-23.2-32.2-16.3-21-33.9-40.5-53-58.9-4-3.4-6.6-4.5-10.6-8-4-3.5-5.4-5.9-9.5-9.3-4-3.4-6.6-4.4-10.8-7.7-4.2-3.3-5.8-5.5-10.1-8.7-40.6-26.2-84.3-47.9-131-60.6-50.4-14.6-103.8-19.2-156-14.4-56.8,4.8-112.2,22.2-162.5,48.8-11.8,6.7-24.9,9-35.2,18.2-4.2,3.3-5.8,5.6-10,8.9-4.2,3.3-6.7,4.2-11,7.4-7.4,5.5-13.2,11.1-20.4,16.8-4.2,3.2-6.8,4.2-10.8,7.7-24.2,25.7-48.4,51.5-68,81-48.9,72.2-75.5,159.3-75.5,246.5h0c-.4,100.7,36.1,201.1,101.7,277.7,8.7,10.3,17.6,19.3,26.8,29.2,8.7,10.4,18.4,18.6,29.1,26.9,20.7,16.5,42.8,30.8,66.2,43.1,15.7,8.4,31.6,14.9,47.6,22.6,21.1,6.3,42,12.2,63.5,17.1,17.4,3.4,34.3,5.6,52,7,120.5,10.4,250.9-37,334.7-124.6,39.8-40.9,80.9-102.7,94.5-158.3,9.7-29.5,16.7-59.6,20.4-90.5,1.6-13.5,2.7-26.2,2.6-39.7,0-4.3,3.1-6.6,3.1-10.6-.3-11.8-1.2-24-2.6-35.9-1.2-13.5-2.2-26.4-5.2-39.6-1.4-5.2-3.2-7.5-4.4-12.6-1.3-5.2-.6-8.1-2-13.2-3-8.7-6.7-16-9-25-2.3-9-5.3-16.3-8.6-25-1.6-5.1-1.1-8.2-3-13.1-1.9-5-3.7-7.1-6.4-11.7-10.6-14.5-16-31.3-25-46.8-2.9-4.4-5.3-6-8.5-10.2-3.2-4.2-4.3-6.7-7.5-10.9-8.7-10.3-16.5-20.2-25.3-30.4-3.5-3.9-5.7-5.5-9-9.6-3.3-4.1-4-7.2-7.6-11.1-6.7-6.2-14.1-10-20.4-16.9-3.7-3.8-4.4-7.1-8.6-10.3-4.2-3.2-8.1-2.4-12.4-5.5-4.3-3.1-5-6.6-9.1-9.9-7.5-5.3-15.2-8.1-22.8-13.2-14.2-10.9-30.2-17.5-46.6-24.3-12.3-5.2-23.9-10.2-36.5-14.9-8.7-2.9-16.5-4.3-25.4-6.7-8.7-2.8-16.2-5.5-25.3-6.9-9.1-.9-17-1.6-26-3.2-17.7-2.1-34.4-3.3-52.2-3.3-35-.2-69.7,4.6-103.6,13.2-5.1,1.2-7.9,1-12.9,2.6-8.5,3.4-15.6,7.1-24.4,9.7-36.9,14-71.7,32.9-103.6,56-13.8,11.2-26.7,22.7-40.8,33.5-6.1,6.8-10.3,14-16.5,20.8-8.9,10.1-16.9,19.9-24.8,30.8-97.8,132.8-106.9,318.7-17.8,458.2,16.5,26.2,35.9,50.2,58,71.9,11.6,13.6,25.1,24.6,39.4,35.2,21.1,16.1,44.2,28.7,68,40.3,8.6,3.4,15.6,7.3,23.8,11.4,4.9,2,7.6,2.4,12.6,3.9,17,5.3,33.7,9,51,12.8,8.8,2.6,16.5,4.7,25.7,5.7,22,2.8,43.6,3.8,65.7,4.8,39.7-.9,79.2-8.4,116.4-22.1,11.9-6.4,23.5-11.4,35.9-16.8,68.3-31.4,128.2-81.4,167.5-145.8,27.7-45.4,49.6-95.6,54.8-149,1.7-13.5,3-26.1,4.3-39.6.9-5.3,2.7-7.9,3.4-13.2,1.1-11.3-.7-22-1.3-33.4-.5-9.3-.5-17.4-1.5-26.6-.6-5.3-1.7-7.8-2.2-13.2-.6-5.3.4-8.2-.6-13.5-1-5.2-3-7.6-4.5-12.7-2.7-8.9-3.5-17-5.8-26.1-4.1-13-10.4-24.3-15.8-36.7-3.7-13.2-9.6-24.4-16.5-36.2-5.3-12.6-14-22.1-21.2-33.6-7.6-11.1-15.8-20.9-23.5-32-9.5-9.6-16.8-20.2-26.3-29.8-3.8-3.6-6.4-4.8-10.3-8.3-4-3.5-5.4-5.9-9.4-9.3-10.6-8.3-21.3-15.2-31.8-23.7-18.4-12.3-37.5-22.7-57.7-32-16.3-7.1-32.7-12.4-49.6-17.7-5.1-1.3-7.8-1.2-13-2.4-8.9-2.5-16.5-4.4-25.7-5.2-30.4-4.7-60.8-5.6-91.5-4.9-61.2,5.2-120.6,24.5-173.1,56.5-8.1,4.5-14.6,9-22.5,13.8-4.6,2.6-7.5,3.2-12,6.1-7.6,5.2-13.9,10.4-20.4,17-3.6,4-4.5,6.9-8,10.9-6.3,6.8-12.9,11.5-19.1,18.4-6.2,6.9-10.3,13.9-15.6,21.5-70.1,88.3-98.5,208.1-74.5,318.4,12.9,60.3,40.9,117.2,81.1,164,8.7,10.3,17.5,19.3,27.2,28.6,9.5,9.6,18.5,18.5,29.4,26.4,17.9,12.9,36.3,24.3,55.8,34.6,8.1,4.3,15.7,6.6,24,10.7,4.7,2.5,6.4,5.5,11.2,7.4,4.9,1.9,8,1,13.2,2.2,8.9,2.4,16.5,4.4,25.3,6.8,8.6,3.5,16,6.2,25.2,7.4,39,7.3,78.7,10,118,3.5,65.6-9.2,126.8-39.1,177.8-80.9,44.6-36.4,80.6-82.1,104.4-134.6,18.4-40.4,29.5-83.9,32.6-128.2,1.7-11.3,2-21.8,1.2-33.2-.5-13.6.4-26.4-2.3-39.8-2.3-17.8-5-35.1-11.6-51.8-4.4-17.3-12.5-32.7-19.1-49.3-7.5-16.1-15-31.7-25.8-45.9-4.6-8-8.8-14.7-14.4-22-7.5-11.2-15.8-20.7-24.5-31.1-5.7-7.3-11.4-12.8-18.6-18.7-9.9-9.2-19-18-30.5-25.1-15.1-9.5-28.1-20.8-43.9-29.2-35.2-17.6-72.8-32.4-112.5-34.3-21.9-1.2-43.1-5.6-65.1-3.1-65.2,2.6-129.9,23.4-184.2,59.9-10.9,7.9-22,14.1-33,21.9-11,7.9-19.8,17.3-29.1,27.1-7.7,11.2-17.5,19.7-24.2,31.6-4.1,8.3-7.8,15.4-13.3,22.9-49.3,77-67.8,173.2-49.4,262.8,14.7,73.5,54,141.7,110.6,191,10.6,8.4,19.1,17.8,30.3,25.5,18,12.9,37.8,22.2,58,31.1,8.7,3.1,15.7,7.1,24,10.8,8.8,2.5,16.8,3.6,25.5,6.7,42.2,12.7,87,16.5,130.7,10,83.1-11.7,160.6-56.3,214.4-120.5,43-50.9,69-114.8,78.5-180.5,2.7-24.4,2-48.5.5-73-1.5-13.5-4.6-25.9-5.9-39.3-1.3-9.3-4.4-16.7-7.9-25.3-4.6-12.7-6.8-25.3-12.6-37.6-5.5-12.4-10.1-24.2-18.1-35.2-4.2-8.3-7.3-15.7-12.7-23.3-5.2-7.7-10.7-13.5-16.6-20.6-5.4-7.5-10.2-13.9-16.7-20.5-24.4-25.5-53.1-46.6-83.5-64.3-27.2-14.9-56.5-25.2-86.7-31.5-5.2-.7-8-.1-13.3-.6-7.6-1.2-15.3-2.5-22.8-3.2-6.1-.4-10.4-.1-16.5,0-9.2-.3-17.1-1.3-26.3-1-43.6,3.6-87.3,12.3-126.8,31.9-28.1,13-52.7,31.5-76.3,51.3-21.3,16-40.3,35.1-54,58-6.6,16.7-16,31.3-23.8,47.5-11.4,24-19.9,48.9-25.4,74.9-23.2,105.7,10,221.1,88,296.6,18.6,18.8,40.2,33.4,61.8,48.3,11.5,6.7,23.1,11.7,35.2,17.5,24.3,10,49.5,16.6,75.5,20.6,12.9,3.8,25.4,5.9,38.9,6.3,135.9,1.6,258.4-84.8,303.3-213,4.4-12.8,8-25,10.8-38.2,3.1-13.3,5.5-25.8,4.6-39.4,2.8-24.2,3.4-48.3.2-72.6-.5-9.3-2.5-17.1-5.5-25.9-3.4-13.1-6.2-25.5-9.5-38.6-7.8-20.8-18.8-39.8-29-59.6-6.7-11.8-15.5-21.1-24-31.7-20.2-23.4-43.7-43.4-69.3-60.5-47.1-32.4-104.7-48.6-161.7-47.8-70-.4-139.9,26.3-192.3,72.7-10.1,8.8-19.2,17.5-28.5,27.1-12.9,12.3-24.7,25-34.3,40.2-5.1,7.7-9.2,14.8-12.3,23.5-1.8,5-1.7,8-3.5,13-1.7,5-3.3,7.2-5.3,12-32.1,75.9-32.1,165,2.6,240.1,23.6,52,62.8,96.4,111.3,126.3,7.2,6,13.8,10.1,22.7,13.2,15.9,7.9,32.1,13.1,48.8,18.9,13,3.3,25.4,5.1,38.3,8.8,9,1.9,17,1.7,26.1,1.6,13.4.3,25.9,1.5,39.3.7,52.8-3.7,103.4-24.7,145.5-56.4,81.5-61,124-160.4,116.6-261.4-7.7-86.2-53.2-161.6-125.5-209.1-90.7-60.9-208.1-59.2-298.4,1.4-15.4,8.9-27.8,21.1-40.3,33.6-19.3,18.2-35.4,38.9-49.7,61.2-8.4,11-12,23.4-14.9,36.7-11.2,28.7-18.1,58.8-19.4,89.6-3.2,63.4,17,127.6,56.5,177.3,16.2,20.7,35.9,38,55.5,55.4,4.4,2.9,7.3,3.2,12,5.6,7.9,4.5,14.5,8.8,22.9,12.5,8.2,4.2,15.8,5.8,24.2,9.5,4.7,2.5,6.3,5.8,11.2,7.8,4.8,2,7.9,1,13,2.4,12,4.7,12.5,5,25.7,5,13.4,1.2,25.5,5.9,39.1,5,9.2-.1,17.2-.3,26.3-1.5,8.9-2,16.6-4.2,25.7-5.6,9.1-1.3,16.6-3.6,25.2-7,12.9-3.7,24.8-7.7,36.7-13.9,51-25.7,93.7-67.3,119.4-118.3,30-60.2,39.2-132.1,18.7-196.7-39.1-132.2-185.3-211.7-316.5-164.6-62.4,21.9-115.2,68.9-143.9,128.5-4.9,12.6-9.3,24.4-14.3,36.9-8.9,31.8-13,64.9-9.7,97.8,6.9,74,49.3,144.9,114.7,181.4,4.2,3.3,5,7.3,9.7,9.7,4.7,2.3,8.4.6,13.6,2s7.2,3.1,12,4.9c28.4,11,58.6,15.9,89,15.2,17.6-.3,34.4-2.1,51.4-6.7,5.2-.9,8.1-.3,13.2-1.4,12.9-3.5,24.3-9.4,36.2-15.6,76.2-39.7,124.1-117,129.1-202.4,4.4-64.2-22.3-129-68.3-173.7-63.8-62.7-162.6-82-243.9-43.2-35.5,17.2-67.6,41.7-90.3,74.2-7.3,11.2-13.9,22.1-19.7,34.1-2,4.9-1.9,7.7-3.9,12.6-2,4.9-4.2,6.8-5.9,11.8-2.9,8.7-2.7,16.9-5.6,25.6-1.8,5-4.6,7.1-6.3,12.2-2.4,8.9-2.3,17.2-3.1,26.4-.7,20.1,0,39.9,7.2,58.9,10,38,29.5,73.4,57.7,100.9,15.5,15.4,33.9,26.4,52.1,38.3,7.7,4.8,14.3,9.8,22.9,13,5,1.6,8.1.5,13.1,1.8,5.1,1.3,7.2,3.2,12.3,4.6,8.8,2.4,16.7,3.3,25.8,4.2,22.1,2.4,43.3.2,64.8-4.8,13.2-2.2,25.1-6.5,36.9-12.8,31.9-14.2,60.7-35.1,82-62.9,35.6-45.9,53.4-106.8,43.7-164.5-10-61.3-50.1-116.9-105.4-145.3-47-24.7-104-28.6-153.7-9.9-53.1,20.1-99.7,62.6-116.5,117.8-8.5,27.1-15.1,55.2-13.1,83.7,1.9,35,14.7,68.9,36.1,96.7,4,9.5,5.5,15.8,14.5,22.2,4.1,3.3,7.2,3.8,11.5,6.9,10.8,7.9,18.3,19.1,30.9,24.2,4.8,2,8,1.4,13,3.1,9,2.4,15.3,7.6,23.3,12,8.5,3.4,16.6,4.3,25.6,5.7,21.7,3.3,43.5.8,65-2.8,9-1.6,16.3-4.8,24.5-8.9,8.3-3.7,15.6-6.6,23.7-10.7,72.9-37.3,112.9-128.3,90.9-207.2-4.6-17.2-12.2-32.9-21.6-48-7.7-11-16.8-19.7-25.5-29.9-5.8-7.2-11.6-12.7-19.4-17.7-10.9-7.8-21.9-14.2-34.3-19.2-44.6-18.8-96.7-16.2-139.5,6.1-27.7,13.8-60.7,44.1-73,72.7-5.4,12.2-8.1,24.4-12.3,37-7,19.6-8.3,40.5-6.4,61.1,2.3,17.5,6,34.4,13.5,50.5,2.2,4.7,4.3,6.6,6.4,11.4,2.1,4.9,1.5,8.5,4.3,12.9,2.8,4.4,5.9,5.6,9.7,9.3,3.8,3.7,5.7,5.4,9.4,9.2,9,9.9,17.6,19.4,29.2,26.5,11.6,6.6,23.3,12.3,36.2,15.8,5.2.9,8.2-.6,13.4.3s7.4,3,12.4,4.3c5.1,1.3,7.8,1.7,13,2.1,13.3,0,26.1-.8,39.1-3.7,8.8-2.4,15.9-6.2,24.3-9.7,16.9-5.2,31.4-14.8,45-25.8,49.3-41,70.2-114.7,44.9-174.4-3.7-8.4-8.2-15.1-13-23-4.3-8.1-8.2-15.4-15.4-21.3-4-3.4-7-4.1-11.2-7.2-4.2-3.1-5.9-4.9-9.9-8.3-12.9-11.9-27.6-22.1-45-26.1-25.5-7.2-52.5-7.4-77.9.2-41.8,12.3-78.1,45.1-92,86.6-4.7,18.6-12,37-10,56.5h0c.7,21.6-4.1,34.3,10.8,50.9,4.6,7.9,7.1,15.3,11.7,23.1,4.8,7.7,9.8,14,16.1,20.6,9.2,9.8,20.1,16.7,32.2,22.3,15.6,8.6,32.7,11.7,50.3,11.9,17.7,2.3,33.8-4.1,50.2-9.7,16.8-4.5,31.2-14.3,44.2-25.7,26.4-23.3,41.9-57.6,43-92.7.3-15.5-1.8-30.7-7.5-45.1-3.6-8.4-8.8-14.6-14.5-21.5-3.1-4-5-5.7-7.6-10.1-4-8.9-6.3-15.9-15.6-20.8-4.5-2.6-7.8-2.3-12.6-4.4-4.7-2.1-6.5-3.9-11.1-5.9-8.2-3.4-15.3-5.6-23.5-9.2-4.8-2-7.1-4-12.2-5.2-12.7-2-26.2-.4-38.6,3.1-32.6,9.7-63.6,31.1-78.1,62.6-10.5,26-15.6,58.4-8,85.5,11.3,43.9,53.7,73.8,98.5,72.9,9-.6,16.7-3.1,25.3-5.7,16.9-3.9,32.1-12.1,45.1-23.8,24.2-22,38.1-56.3,32.8-88.9-1.2-9.1-3.8-16.6-7.4-25-2-4.8-2.2-8-5.4-12-3.2-4-6.8-4.7-10.8-8-6.5-6.3-11.8-10.9-19.1-16.1-6.3-6.5-12.5-11.9-21.6-13.7-20.7-1.9-43-2.9-62,7-11.9,5.3-22.9,11.4-32.3,20.6-15.1,16.3-22.2,38.7-22.1,60.7h0c-1.1,34.1,20.9,63.7,52.3,74.3,27.9,9.6,61.5-1.4,81.5-22.3,15.3-16.4,24.3-39.7,19.5-62-1.6-8.7-3.4-17-8.1-24.6-2.9-4.2-5.7-5.5-9.6-8.8-22.2-16.9-16.9-15.6-44.7-18.6-5-.8-7.9-2.6-13-2.4-13.1,1.7-24.8,9.4-34.1,18.7-27.1,27.5-23.7,78.9,14.9,93.7,20.2,8.3,43.8.2,57.4-16.2,9.4-11,14.8-27.1,9.3-41.1-3.1-13.5-14.3-23.6-27.5-26.7-6.1-.6-13.1-2.6-19.4-1.1-17.7,5.8-30.6,27.4-24.1,45.5,5.2,15.9,27.5,21.4,39.2,9.3,6.1-5.7,10.4-15.8,6.5-23.6-2.3-4.1-8.7-7-13.5-4.8-2.8,1.2-5.9,5.6-2.1,8.1,3.4,1.6,7,4.9,5.7,9.1,0,.5-.7,4-4.3,6.1-10,6.8-24.3-1.9-23.3-13.8.5-27.7,37.9-41.5,53.8-17.2,5.7,9.9,5,25,.3,35.2-11.1,27.8-50.3,33.5-69.6,11.1-14.8-15.6-13.5-40.8-2.2-58,5.1-8.4,11.4-13.8,19.5-19.2,4.6-3.3,6.8-6,12.1-8,9.4-3.4,19.4-2.7,28.6.9,5.2,2.1,7.2,4.7,12.1,7.5,4.9,2.8,8.2,3.1,12.5,6.5,11.9,10,18.1,25.7,17.4,41.1,0,34.4-26.4,69.5-62.5,69.9-18.6,1.1-37.2-4.7-51.1-17.2-40.7-35-25-99.7,18.5-125,11.9-7.6,25.1-9.3,39-9.9,18.9-4.7,37.6,2.8,52.4,14.6,11.4,7.9,11.2,11.1,15.4,23.4,2.5,5,4.9,6.6,7.3,11.5,2.4,4.9,3.2,7.6,4.6,12.9,4.1,15.8,2.4,31.9-1.5,47.6-6.9,26.9-26.1,50-51.1,62.1-28.9,13.7-64.9,7.9-91.3-9-26.3-17.6-42.1-45.5-45.2-78.3h0c-.5-35.7,19.1-68.7,44.1-93.1,15-11.7,33-17.2,51.4-21.1,18.5-2.6,38-.9,54.9,7.5,8.4,4.9,14,11.6,22.3,16.6,4.8,2.8,8.7,2.4,13.2,5.7,7.9,6,11.2,14.7,15.1,23.6,15,27.1,19.9,51.5,14.4,82.3-7.7,45.8-41.4,83.4-85.2,97.7-9.2,2.2-17.7,1.9-27.1,2.1-9.4.3-17.5,0-26.7-1.9-26.5-5-50.7-18.7-68.9-38.6-13.3-12.8-22.7-28.3-29.4-45.4-14.3-35.5-5.4-80.7,17.3-112.1,28.7-46.1,88.1-70.1,140.8-58.3,4.5.9,8.1,2.1,13,3.1,5.3,1.1,8.4.6,13.6,2.2,5.2,1.5,7.6,3.1,12.6,5.5,14.3,5.2,21.1,16.3,30.3,27.4,3.8,3.9,6.4,5.1,10.3,9,11.3,9.2,15.1,22.6,18.8,36.1,15.5,40.4,11.3,87.3-9.8,124.9-13.3,23.9-32.5,44.7-56.7,57.8-12.3,6.8-23.8,14.1-38.1,14.6-18.1,2.5-36,4.5-54.1,1.6-22.4-3.8-43.1-12.9-62.1-25.3-11.9-7.2-21.9-15.8-31.7-25.6-9.3-8.3-10.2-12.3-13.6-23.8-2.1-5.1-3.9-7.1-6.1-12.1-3.5-6.6-7.9-10.2-10.1-16.3-.8-2.3-2.1-6.8-3.3-12.2-4.5-20.8-3.7-41.4-1.4-58.3.8-5.5.9-8.4,2.7-13.6,1.8-5.2,4.8-7.1,6.3-12.5,1.5-5.3-.3-9,1.3-14.2,1.7-5.2,4.1-7.3,7-12,2.9-4.7,4.5-7,7.5-11.5,12.3-19.3,28-36.2,47.6-48.2,59.2-39.2,133.4-33.4,190.2,7.4,10.9,5.4,14,7.9,20,18.6,5.2,8.1,10.1,14.7,15.6,22.5,39.1,63.2,30.4,150.6-18.6,206-15,17.1-32.4,31.6-52.7,42.2-8.1,5.2-15.8,8-25.3,9.6-30.2,6.7-48.9,11-79.7,3.9-29.3-5.7-22,5.2-51-15.4-8.4-4.4-15.2-8.4-23-13.8-14.6-7.9-21.8-12.3-29.3-27.6-3.1-4.5-4.5-6.6-8.3-10.6-3.8-3.9-7.2-4.8-10.7-9-3.5-4.2-4.2-7.1-6.7-12-4.4-8.5-7.7-16.1-10.9-25.1-13.9-40-14.8-88.6.5-128.2,10-20.6,22.3-39.6,36.6-57.4,17.4-20.9,39.8-37,64.6-48,65.5-29.9,147-18,201,29.6,7,6.3,13,11.9,19.5,18.7,9.3,10.2,15.6,21.8,22.5,33.7,42.5,78.8,24.3,183.2-42.4,243-16.7,15.5-35.4,28.5-56.3,37.6-13.1,4.2-25.8,7.4-39.2,10.9-26.5,6.3-53.8,4-80.3-.7-5.4-.4-8.6.9-14,0-5.4-.9-7.8-2.5-13-4.4-8.8-3.6-16.5-6.7-25.2-10.6-8.8-3.9-15.6-8.7-23.1-14.7-7.5-5.8-14.6-10.4-21.1-17.4-3.6-4.1-3.9-7.7-7.7-11.6-3.9-3.9-7.6-4.1-11.5-7.9-23.2-28.3-38.6-62.9-44.3-99.1-3.1-11.8-.6-23.8-.4-35.6h0c-.4-10-2.5-19.2-.8-29.1.9-5.3,3.2-7.7,4-13.1.1-14.4-1.7-12.6,4.7-26.9,2.3-9.4,5.6-16.9,11-24.9,4.3-8.5,8.2-15.6,13.7-23.4,24.7-37.5,60.3-68,102.7-83.6,142.8-52.7,291.4,49.4,292.6,201.8,2.8,78.5-40,155.7-106.2,197.4-15.3,10-31.6,16.7-48.9,22.3-8.8,3.3-16.5,5.8-25.8,7.5-13.7,1.6-26.3,5.4-39.9,7.3-9.4,0-17.7-1-27.1-1.3-9.3-1.4-17.7-1.8-26.8-3.9-5.2-1.6-7.4-3.8-12.4-6-12.8-5-24.9-8.9-37.3-14.8-8.7-3.5-16.9-5.5-25.4-9.7-19.3-12.1-36-27.5-50.9-44.7-21-24-36.1-52.5-45.3-83-2.9-9.1-4.1-17.3-5-26.7-1.5-9.7-2.6-18.3-3.4-28.1h0c-1.3-12.2-5.1-20.3-3.4-32.7,3-13.7,2.9-27,6.3-40.7,1.4-5.3,3.1-7.7,4.6-12.9,1.5-5.3,1.3-8.2,2.9-13.5,2.5-9.3,6.7-16.6,11.7-24.8,12.3-24.5,28.4-46.4,47.9-65.7,63.5-64.3,164.2-85,248.9-55.1,68.6,23,123.4,79,147.8,146.8,36.9,104,3.7,219.2-83.1,287.4-14.3,11.3-29.5,20.5-46,28.3-8.5,4.2-16.2,6.8-24.9,10.3-5,2.2-7.1,4.5-12.2,6.1-5.2,1.6-8.2.9-13.5,1.8-13.4,2.9-26.2,4.8-40,5-13.8-.2-26.5,4.2-40.3,2.3-13.7-1.6-26.7-3.2-40.5-4.5-30.9-7.5-60.3-21.2-85.6-40.5-64.8-43.5-106-118.3-110.6-196-2.6-39.8,3.9-80.1,17.9-117.4,14.3-28.3,28.7-56.7,50-80.5,20.7-23.9,46.4-42.6,73.7-58.3,59.2-30.9,129.8-39.3,194.5-22.6,110.9,27.1,193.1,128.2,201.2,241.4,12.4,136.4-80.4,266.1-214,297.1-13.2,3.5-26,5.5-39.6,7.3-13.7,1.5-26.5-1-40.2-.4-13.8,1.3-26.6-.2-39.9-4.1-9.3-1.3-17.5-2-26.4-5-5.1-1.6-7.4-3.2-12.6-4.8-5.2-1.6-8.1-1.3-13.3-3-5.1-1.7-7.4-3.3-12.3-5.7-12.7-5.7-23.8-12.3-34.7-20.8-4.6-2.8-7.6-3.2-12.2-6-11.4-7.9-21.2-16.6-31.3-26.1-32.8-31.6-57.7-70.9-72.4-114-21.4-62.5-20.9-132.6,1.8-194.7,3.4-9,7.9-16,13-24.1,12.8-24,24.9-48.1,41.3-69.8,19.8-25,45.2-44.1,72.1-60.9,76.4-46.8,174.7-54.2,258-22.1,33.5,12.8,64.8,31.1,91.6,55,25.9,25,48.3,53.6,64.7,85.7,16.5,32.2,27.2,67,31.8,102.9,2.7,19.3,3,38.2,3.2,57.6-.3,9.5-2.1,17.6-4.2,26.8-4.1,22.3-9.6,44-18,65.1-30.9,79.5-95.9,145.2-175.9,175.3-29.3,10.9-59.7,18.2-90.9,20.6-22.4,2.2-44.6,2.5-66.9-1.2-31-5.3-61.6-13.7-89.1-29-17-6.6-31.8-16.4-46.6-27.1-128-93.8-163.8-269.2-90.1-408.3,4.7-10.7,8.3-13.9,16.5-21.7,8.2-11,15.2-21.8,23.7-32.6,5.8-7.4,10.6-14,16.6-21.3,15.1-16.9,32.7-30.8,51.9-42.8,30.2-19.5,63-33.9,98-42.2,26.1-5.9,52.4-10.3,79.3-10.7,44.4,1.1,88.7,11.1,129.4,28.8,37.1,16.1,71,38.4,99.2,67.5,13.2,12.7,23.1,27.3,35.2,40.9,5.3,7.8,8.5,15.5,13.2,23.7,6.6,12.2,14.4,22.7,20.6,35.1,6.7,12.3,8.5,25.5,12.7,38.8,8,29.3,12.5,59.7,12.7,90,.7,12.6,0,25.5-3.2,37.9-2.7,27.2-8.7,53.6-18,79.2-48.8,135.4-177.6,224.9-321.7,221.3-13.7.2-26.5.2-40.1-1.9-13.7-1.3-26.6-2.6-39.8-6.6-13.4-3.4-25.1-9.1-38.3-12.8-16.9-6.7-32.4-15.3-47.7-25-7.9-5.2-15.2-9-23.3-13.7-18.5-13.2-35.1-28.3-50.6-45-107-115.2-119.3-291.9-35.4-423.6,9.3-10.3,17.8-20.2,26.3-31.1,9.1-10.3,17.8-19.8,27.3-29.8,6.6-6.7,12.1-12.8,18.6-19.6,10.1-9.5,20.4-17.4,32-24.9,26.5-17.2,54.7-31.5,84.9-40.9,34-12.1,70.1-17,106.1-16.4,5.4,0,8.1.4,13.5.4,6.3-.3,11.5-1.2,17.7.3,7.1,3,14.8,2.8,22.5,3.9,5.3,1,7.9,2,13,3.4,13,4.3,25.6,7,38.7,11,21.4,7,41.8,15.6,61.5,26.3,16.2,8.3,31,17.8,45.3,29,8.2,5,14.4,10.1,20.7,17.3,23,21.7,46.7,43.3,61.5,71.7,2.6,4.8,3.4,7.4,6.4,12,2.9,4.6,5.4,6.3,8.2,10.9,5,8.1,7.7,16,11.2,24.9,5.6,12.8,9.7,25.2,14.7,38.2,3.5,9.2,3.2,17.6,3.7,27.1.9,5.4,2.6,7.8,3.8,13.1,2.1,9.3,2.6,17.5,3.2,26.9.5,9.5,1.5,17.6,2.8,27,.6,6.8-.9,10.3-.5,16.9,1.3,9.4,2.7,17.7.8,27.2-3.8,17.9-5.4,35.5-9.9,53.3-5.3,22.1-12.7,43.2-21.9,63.9-28.8,65.7-78.5,122.4-139.6,160.1-60.7,37.6-132.5,55.1-203.7,53.3-22.5.2-44.3-2.7-66.3-7.3-9.1-2-17.3-2.8-26.3-5.4-5.1-1.8-7.1-4.2-12.1-6-17.8-3.8-33.7-11.5-49.6-20.3-16.2-8.3-30.8-18-45.3-28.8-7.4-5.8-14.3-10.2-21.9-15.7-7.3-5.9-13.1-11.8-19.9-18.3-48.2-47.8-82.6-109.1-98.5-175.1-26.5-108.2-1.7-227.1,64.8-316.2,5.8-7.5,12.2-12.8,18.9-19.5,3.6-4,4.6-6.8,8.4-10.6,3.8-3.8,6.6-4.9,10.6-8.4,4.1-3.5,5.8-5.6,9.7-9.3,9.9-9.5,20.3-17.1,29.7-27.2,12.6-13.3,28.5-21.6,44.1-31,66.2-38,145.1-53.1,220.8-44.7,13.5,2.5,26.4,3.7,39.6,7.6,8.9,3.2,16.6,5.3,25.9,7.2,17.4,5,32.8,13.7,49.8,19.7,24.6,11.2,47.5,25,70,39.7,10,9.5,20,17.8,30.3,26.8,8.9,10.6,19.3,18.4,28.3,28.9,9.9,9.8,17.2,20.6,25.2,31.8,5.7,7.6,10,14.6,14.4,23,11.4,19.7,20,40.4,28.4,61.5,4.1,13.2,6.2,26.1,10.8,39.2,2.2,9.2,3.1,17.3,5.2,26.5,1.2,5.3,2.5,7.8,3.3,13.2.7,5.4-.1,8.2.4,13.6,1.3,9.4,3,17.4,3,26.9-.6,16-1,31.4-1.4,47.4-2.9,27-7.7,53.6-15.3,79.7-22.9,77.8-70.8,148-134.1,198.6-24.8,19.3-51.1,37.4-81.1,47.6-45.5,18.6-93.7,30.3-143,31.9-22.5.8-44.6,1.6-66.9-2-5.3-.8-7.9-1.8-13.2-2.4s-8.2.1-13.6-.6c-13.4-2.7-25.9-6.8-38.8-11.3-4.9-2.2-6.9-4.8-11.9-6.6-5.1-1.8-8.3-.8-13.5-2.4-12.8-4.9-24.1-11.4-36.6-17.3-27.8-15.1-53.3-33.5-77.1-54.2-18.2-13.7-32.7-31-46.9-48.7-22.5-28.5-40.9-60-54.8-93.5-36-86.2-39.7-184.6-12.2-273.7,12-39.1,29.7-76.3,52.7-110.1,7.8-11.4,15.5-22,24.5-32.5,6.4-7,13-12,19.7-18.7,9.2-10.2,17.3-20.7,29-28.2,4.4-3.1,7.2-3.9,11.5-7.2,4.3-3.3,5.9-5.5,9.9-9.2,13-12.9,28-22.5,44.1-31.2,23.6-13.5,48.4-23.9,74.4-32,47.4-14.6,97-21.2,146.5-17.6,13.7,1.2,26.6,2.4,40.1,5.3,9.1,2.4,17,4.2,26.3,5.7,9.5,1.4,16.9,4.6,25.6,8.4,9,2.7,17.1,4.1,25.9,7.5,8.7,3.5,16,7.3,24.4,11.6,15.7,9.2,32.3,15.5,47.1,26.1,7.7,5.5,14.6,9.8,22.2,15.4,4.2,3.4,5.6,6,9.7,9.5,7.6,5.6,14.8,9.6,21.8,16,6.9,6.4,12.4,12.5,19.4,18.9,7.3,6.1,12.6,12.3,18.2,20,3.5,4.2,5.7,5.9,9,10.2,5.4,7.8,10,14.6,15.6,22.3,5.4,7.8,8.7,15.4,13.1,23.8,7.4,11.7,14,22.9,19.6,35.6,3.9,8.6,8.1,15.9,11,24.9,1.5,5.2,1.1,8.3,2.2,13.7,2,9.3,4.6,17,7.5,26,5.6,17.4,9.4,34.7,11.5,52.9,3.4,17.8,4.2,35.4,3,53.5-.4,6.4,2.5,11.3,2.8,17.6.3,5.4-.4,8.1-.8,13.6-1.8,22.7-4.7,44.9-10.3,67.1-2,9.3-4.9,17-8.6,25.7-4.5,13.1-8.9,25.2-14.3,37.9-37.1,91.5-108.4,168.1-195,214.9-20.1,10.1-40.4,19.3-61.9,26-13.5,2.2-26.1,4.7-39.4,8-30.7,6.2-61.5,10.9-92.8,11.4-18.1,0-35.5-2.9-53.5-3.9-17.9-2.8-35.1-6.5-52.5-11.6-13.1-4.1-24.9-9.3-37.7-14.3-42.5-14.3-80.6-39.6-115-68.1-97-76.9-151.7-201.3-151.4-324.3h0c0-87.1,26.5-173.8,75.5-245.8,10.3-15.1,21.1-29.1,33.1-42.8,6.3-7,11.6-13.4,18.6-19.6,4.2-3.5,7.2-4.1,11.3-7.7,4-3.6,5.1-6.4,8.8-10.3,6.5-6.9,13.1-11.7,20.7-17.3,7.4-5.8,13.8-10.9,21.8-15.8,4.6-2.8,7.4-3.4,11.8-6.5,4.4-3.1,5.9-5.9,10.3-9,7.9-5.1,15.4-8.4,23.6-13.1,20.1-10.3,40.6-18.8,62.1-25.9,47-15.1,96.4-22.3,145.8-20.9,26.9,1.3,53.8,3.3,79.8,11.1,17.9,3.4,34.9,7.8,51.6,14.9,25.7,8.4,49.7,20.8,72.4,35.3,4.7,2.7,7.5,3.2,11.9,6.3,4.4,3.1,5.5,6.3,10,9.3,8.2,4.5,16.4,6.9,23.4,13.5,4.1,3.5,5.3,6.4,9.3,10,7.2,6.1,14.4,10.1,21.3,16.6,3.9,3.7,5.2,6.3,9.1,10,3.9,3.8,6.4,5,10.3,8.8,15.4,16.7,29.7,33.9,42.2,52.9,2.8,4.6,3.5,7.5,6.4,12,3,4.5,5.4,6.2,8.4,10.7,5.1,8,8.2,15.7,12.4,24.2,6.2,12.4,12.7,23.8,16,37.4,6.4,17.1,13.4,33.4,17.4,51.3,2,9.3,2.7,17.5,4.2,26.8,3.7,17.9,6,35.3,6.9,53.6.8,5.4,2.6,8,3.4,13.4,1,7.2.6,13.1.1,20.4-.4,54.5-10.6,108.7-30.3,159.5-3.3,8.9-7.4,16.1-12.2,24.3-10.1,20.3-20.7,39.8-33.1,58.8-49.2,75.2-121.3,134.5-203.5,170.3-62.2,25.7-130.6,36.2-197.6,31.1-67.2-5.5-132.6-27-190.5-61.3-19.3-11.7-37.3-24.8-54.8-39.1-10.4-9.1-19.8-18-30.9-26.2-85.2-83.6-134-202.2-133.4-321.5h0c-.2-124,51.3-247.4,141-333.2,11.5-7.7,20.7-16.7,30.6-26.4,10.5-8.8,21.4-15.9,32.1-24.5,37.1-25.1,77.8-44.8,120.7-57.9,21.6-6.5,43.1-12.4,65.7-12.8,9.1-1.9,16.9-5.2,26.3-5.3,5.4,0,8.2,1.8,13.5,1.5,5.4-.3,7.9-2.5,13.3-3.1,5.3-.6,8,0,13.4,0,35.9-.2,71.4,4.3,106.2,13.1,35.1,7.7,68.5,20.9,100.4,37.4,12,6.7,23.3,12.9,34.9,20.1,7.8,5.2,13.7,11,21.2,16.5,15.7,9.2,29.9,19.6,42.9,32.3,23.7,21,44.7,44.3,63.1,70.1,18.7,25.6,34,53.2,45.6,82.7,4.2,8.5,6.7,16.3,9.1,25.4,4.7,13,9.5,24.9,12.4,38.4,3.9,13.3,7.3,25.8,12.2,38.7,5.7,28.8,7.9,58.3,7.9,87.6.3,63.3-12.5,126.5-36.9,185-5.3,12.7-10.8,24.5-17.2,36.8-4,8.7-9.2,15.1-15.3,22.3-32.3,53.8-74.9,101.1-125.3,138.5-25.2,18.7-51.9,34.7-80.2,48.4-16.2,8.2-32.2,15.3-49.4,21-29.8,10.2-60.4,16.4-91.6,20.1-31.2,4.2-62.4,4.4-93.7,1.6-75.9-6.4-149.5-33-213.2-74.6-22.3-15.2-44.2-30.7-63.2-49.9-10.2-9.3-20.8-16.9-29.6-27.6-79.5-87.1-124.2-204.4-123.7-322.2h0c0-101.7,32.3-203,91.5-285.7,13.2-18.5,27.4-35.7,43-52.2,12.5-13.3,25.2-25.6,40.4-35.7,13.7-12,26.5-24.1,42.7-32.6,18-13.8,36.9-25.3,57.6-34.7,20.4-9.8,40.8-18.3,62.4-25.1,17.3-5.6,34.3-9.9,52.1-13.5,9.2-2.5,17.3-2.7,26.7-2.8,5.4-.5,7.9-1.8,13.2-2.2,5.3-.3,8.2,1,13.5.6,9.3-1.3,17.2-4.2,26.6-4.8,13.7-.3,26.6,0,40.3.7,35.9,2.1,71.2,8.5,105.7,18.4,34.8,9.3,67.8,23.7,99.1,41.3,12,6.7,22.6,14.1,34.6,20.9,7.4,5.8,13.5,11.2,21.3,16.6,7.1,6.2,14.1,10.5,22.1,15.5,10.6,8.8,20,17.8,29.8,27.5,31.6,32.1,60.3,67.7,80.9,108,5.5,12.7,12.2,23.9,17.5,36.7,3.3,8.9,5.5,16.7,9.2,25.5,4.5,13.1,12.4,23.9,15.4,37.6,13.6,45.6,20.5,93.1,20.3,140.6.5,90.6-24.6,181-70.9,258.9-6.7,12.2-14.7,22.5-24.4,32.5-28.6,40.2-63,76-102.2,106.2-49.6,38.3-106.3,67.1-165.8,86.3-25.9,7.6-52.2,12.3-79.1,15.2-31.2,4-62.6,4.6-93.9,1.2-85-6.2-167.5-37.4-237.8-85.2-25.8-18.2-50.3-37.8-71.8-60.9-7.5-5.9-13.7-11.1-19.7-18.6-81.6-91.6-127.4-213.6-126.9-336.2h0c0-111.5,36.9-222.8,104.1-311.8,13.6-18.1,28.1-34.9,44-51.1,13-12.7,24.9-26,40.9-35,14.6-10.7,28.1-21.9,42.2-33.3,11.5-7.4,22.5-14.2,34.8-20.4,15.3-9.7,31.1-17.5,47.9-24.3,37.2-15.6,76-27,115.8-33.2,5.3-.5,8.2.2,13.5-.2,5.3-.5,7.9-1.8,13.2-2.1,5.3-.3,8.1,1,13.5.6,9.2-1.2,17.1-4.2,26.5-4.7,9.3-.4,17.5.2,26.8.1,27,.6,53.4,3.9,79.9,8.7,9.1,2.3,16.9,4.3,26.1,6,13.3,3.2,25.6,7,38.8,10.7,21.4,7,41.8,15.6,62.2,25.2,8.1,4.8,15.3,8.6,23.3,13.4,7.4,5.8,13.5,11.2,22.2,15.2,24.9,10.8,45.9,27.9,66.4,45.4,54,47.4,99.4,105.8,128.4,171.7,22.8,49.2,38,101.7,44.6,155.5,2.3,18.1,3.4,35.8,3.8,54-.1,6.1,2.2,13.6-4.7,14.4Z" fill="#231f20"/>
</svg>