<?xml version="1.0" encoding="UTF-8"?>
<svg id="Layer_2" xmlns="http://www.w3.org/2000/svg" version="1.1" viewBox="0 0 1080 1080">
  <!-- Generator: Adobe Illustrator 29.7.0, SVG Export Plug-In . SVG Version: 2.1.1 Build 138)  -->
  <path d="M1050.8,578.4c.3-36.3.4-80.4-5.7-115.9-10.6-70.7-36-139-74.5-199.3C867.1,98.7,673.3,6.6,480.4,33.3,187,72.6-8.7,358.1,53.5,646.2c76.7,347,476,505.3,766.3,296.8,274.2-200.6,274.2-615.4-9.8-807.2C545.3-40.1,191.5,86.8,92.8,387.3c-62.7,189.3-1.4,401.5,156.7,524.4,97.6,76.9,227,111.5,349.9,93.1,209.4-29.9,372.5-202.2,395.5-411.8,24.6-207.5-96-409.7-292.6-482.3-174.3-65.6-374.2-13.4-495.4,127.7C17.5,457.9,74.8,799.5,334.7,934.4c241.9,124.1,533.8-1.5,615.7-259.5,72.3-225.4-46.7-470.5-273.2-544.7-212.8-70-442.7,40.9-524.7,248.4-65.8,163.5-24.2,354.6,107.9,472.4,146.9,132.6,370.1,140,525.5,17.1,129.6-100.7,188.5-277.1,144.9-435.3-44.7-168-196.6-291.1-370.9-296.3-174.2-6.5-333.8,105.9-389.6,270.7-50.2,144.3-13.2,308.8,97.8,414.7,132.5,128.2,340.4,142.9,489.3,34.3,151.3-108.6,205.1-318.1,121.6-485.2-72.2-147.6-236.5-232.1-398.5-201.8-200.1,36.2-334,230.5-300.8,430.3,36,219.2,259.7,356.4,470.6,282.8,185.9-64.3,286.5-272.8,221.9-458.4-57.1-166.8-233-265.9-404.9-224.4-215.3,51.1-329.2,294.3-230.1,492.2,47.5,96.1,143.3,165.9,249.6,180.4,221.8,31.1,407.8-162.8,374.4-382.7-24.1-159.8-166-279.5-328.1-272-151.8,5.8-279.1,122.5-301.6,272-21.7,132.8,46.1,268.3,167.3,327.7,190.7,93.7,412.6-31.3,437.5-240.9,18.1-143.3-71.5-282.3-211.1-321.4-204.6-57.1-396.6,116.1-368.1,324.8,18.7,136.8,137.4,242.7,276.1,242,138.7.6,257.3-105.3,276.1-242,17.5-114.8-42.5-231.9-147.6-282.3-83.6-41.7-188.5-33.7-264.9,20.1-148.7,102.6-157.4,326.1-7.7,431.8,93.3,66.4,223.3,59.4,309-16.6,132.4-116.2,112.3-332.8-48.9-411.6-98.6-48.4-220.7-20-288.6,66.1-58.2,71.3-70.8,177-27.4,258.7,55,107.1,187.3,152.7,296.2,100.2,92.6-43.2,145.9-149.8,125.2-249.9-21.2-108.4-124.7-184.8-234.6-170.2-106.3,12.8-186.9,106.9-186.1,213.4-.5,114.9,97.2,209.4,212.6,201.2,115-7.3,200.2-114.3,184.1-228-10.7-80.9-76.6-148.5-157.6-159.5-80.8-12.6-162.9,33.5-195.7,108.1-46.5,101.2,6.5,221.9,116.6,248.4,100.6,24.2,199.8-47.9,211-150.1,12.6-100.2-70.2-189.7-171.7-180.9-96.6,7.7-165,103.6-141.5,197.4,20.1,81.8,107.4,131.1,187.5,103.9,76.7-24.6,120.8-114.2,91.2-189.7-24.1-64.4-97.2-100.6-162.9-79.4-63.3,18.8-104.2,87-91.6,151.7,13.6,73.6,93.1,118.1,162.5,88.9,55.6-21.9,88.2-88.4,69.5-145.4-28-86.3-142.4-101.2-191-24.4-40.9,64.7-2.6,150.5,76.6,152,58.7.8,104.6-57,90.7-114-10.4-44.7-60-72.5-103.4-56.6-46.7,15.1-71.2,77.6-39.9,117.7,29.6,39.4,91.4,32.9,112.4-11.6,8.9-18.3,9.8-41.2-1.5-58.5-11.8-19.5-36.4-29.4-58.3-23.4-24.5,5.9-41.9,30.6-39.9,55.6,3.6,41.7,59.7,51.4,76.6,12.9,9.2-19.1-.6-43.2-23.4-43.3-8.9,0-17.1,4.3-22.1,11.7-7.7,10.2-6.8,28.3,8.8,29.1,7.9,0,12.8-5.7,9.7-10.6s-6.4-3.1-6.4-7.7c0-8.4,10.6-10.6,16.5-6.9,2.9,2.3,4.6,4,6.5,7.7.6,2,.5,5,.5,7.2-7.9,39.7-62.8,25.9-52.2-13.3,8.2-33.9,53.6-41.8,72.3-12.2,8.9,13.4,8.2,30.8,1.4,45.1-13.2,30.1-53.5,40.8-79.6,20.7-25.2-17.8-27.9-54.3-11.9-79.3,25.5-42.2,87.5-42.2,113,0,22.7,36.2,5,87.4-31.8,106.8-50.5,28-113.4-7.2-117.6-64.4-5.4-70.2,67.2-122.3,131.5-92.4,60,27.8,70.7,105.1,30,154.4-45.3,56.3-133.9,50.5-171.8-10.9-42.3-67.2.5-159.5,77-175.8,88.3-19.6,163.3,61.3,142.6,148.1-13.2,62.2-72.6,108.4-136.3,104.4-49.2-2-95-33.9-114.5-79-21.5-47.4-12.6-105.4,19-146.1,73.3-94.7,220.5-66.6,255.3,47.6,20.7,67.3-10.3,145.2-70.5,181.1-66.4,41.6-156.5,25.9-205.5-35.2-52.5-62.8-46.7-159,7.2-219.2,67.8-77.7,190.2-77.7,258,0,56.9,63.3,57.1,161.9,6.7,229.1-60.4,82.6-179,100.2-260.4,37.9-84.9-63.9-97.7-185.9-35.7-270.3,59.3-82.6,175-106.9,262-53.9,103.1,61.7,127.1,198.7,59.8,296-59,87.3-176.5,117.9-270.3,69.5-111.9-57-148.5-196.3-87.8-304.4,45.5-83.1,142.9-130.2,236.2-112.7,98.7,17.1,175.7,102.1,185,201.5,14.1,137.5-92.3,261.7-231.2,265.3-139,4.3-251.8-113.8-245.5-251.9,4.1-124.6,101.1-231.1,225.6-243.8,119.2-13.4,232.7,63.2,267.4,177.6,54.8,180.9-91.6,362.6-280.6,343.8-128.2-12.4-229.7-119.3-238.4-247.3-13.8-194.3,168.4-346.3,356.7-290.9,108.8,31.5,189.3,131.4,199.1,243.9,13.1,134.8-70.3,265.3-199.3,307.6-150.8,50.9-314.9-31.9-366.9-181.7-66.8-192.3,71.3-398.8,275.3-407.8,106.9-5.5,212.9,50.4,269.7,140.9,114.2,179.1,19.3,421.6-184.6,478.7-166.2,47-339.5-50.4-389.5-214.9-42.7-136.8,11.8-292.3,130-373,191.8-132,452.2-30.5,509.2,194,48.6,193.5-78.1,392.6-275.3,427.3-179.4,32.3-352.7-84.3-394.9-260.7-47-193.5,74.9-393.2,269.7-437.2,217.8-49.5,424.9,112,436.8,333.7,11.3,202.3-141.5,380.9-344.8,395.4-154.2,11.9-301.9-78-364.7-218.9-73.3-160.6-23-357.5,116.6-465.1,141-110.7,342.9-107.1,480,8.4,118.1,98,166.4,259.5,125.6,406.8-46.1,172.9-204.6,297.2-384.2,296.5-174.5.6-330.2-117.2-380.4-283.6-51-163.8,9.4-349.3,146.4-452.4,153.2-117.3,369.9-110,515.2,16.8,141.5,122.2,182.4,326.1,105,495.2-87.3,194-306.7,295.5-510.6,232C186.1,881.4,62.5,646.4,123.4,423.1,195.4,156.4,490.3,18.3,739.2,141.2c259.5,129.7,323.4,466,142.2,688.9-123.3,152.3-334.7,207.6-516.3,133.1C156.2,878.5,42.8,651.2,93.9,432.8c47.7-210.5,236-364.1,452.7-363.6,156.9-.9,307.7,83.3,390.9,216,97.1,151.1,97.5,350.2,5.3,503.6-99.3,168.4-295.7,261-488.7,227.3-203.5-34-362.7-199.7-393-403.2C24.8,377.8,163.6,144.8,389.7,68.3c208.7-71.8,441.3,8.7,563.4,192,135.1,200.3,104.7,474.3-66.7,643.4-97.2,97.3-235.5,151.7-373,145.6-189.8-6.8-362.2-125.3-439.2-298.5-22.1-49-36.3-101.2-42.2-154.6-4.1-29.9-2.5-64.8-2.9-95.1" fill="none" stroke="#231f20" stroke-miterlimit="10" stroke-width="13"/>
</svg>