<?xml version="1.0" encoding="UTF-8"?>
<svg id="Layer_2" data-name="Layer 2" xmlns="http://www.w3.org/2000/svg" viewBox="0 0 680.37 680.39">
  <defs>
    <style>
      .cls-1 {
        fill: #231f20;
      }
    </style>
  </defs>
  <g id="Layer_1-2" data-name="Layer 1">
    <path class="cls-1" d="M677.34,337.19c-1.64,0-2.98,1.35-2.98,3.01,0,.57,0,1.18,0,1.86,0,3.51-.03,5.26-.12,8.77-.14,6.12-.45,11.41-.99,17.51-2.03,23.37-6.31,46.31-13.12,68.78-27.47,92.08-96.83,170.04-184.99,208.26-158.59,69.48-343.16,1.73-421.78-151.92C2.94,396.7,3.53,275.46,57.63,180.36c9.86-17.96,21.5-34.64,34.28-50.62,15.21-17.72,32.07-33.67,50.3-48.26,9.13-7.43,18.75-13.5,28.87-19.47,12.52-7.5,25.13-14.26,38.55-20.01,23.53-11.43,48.91-18.26,74.68-22.42,8.76-1.4,16.9-3.44,25.77-4.05,17.44-.99,34.69-.55,52.05,1.36,17.33,1.71,34.38,4.14,51.25,8.51,8.53,2.44,16.82,3.65,25.1,6.92,16.32,6.28,32.36,12.62,48.19,20.03,30.91,16.44,58.92,38.09,82.75,63.73,9.79,10.98,18.47,22.47,27.27,34.24,50.56,70.15,70.28,161.45,55.24,246.35-3.81,20.18-9.08,39.94-16.74,59.01-7.55,15.87-14.09,32-23.4,46.97-80.96,134.73-248.84,189.97-392.93,125.27-115.42-51.27-189.05-170.9-185.06-296.85.63-32.17,7.25-63.76,17.16-94.29,4.88-13.83,11.05-26.83,17.62-39.92,7.99-15.62,17.42-30.12,27.77-44.28,12.51-16.09,26.44-30.78,41.38-44.63,15.08-13.67,32.19-24.53,49.62-34.93,22.38-13.46,46.53-23.3,71.73-30.1,8.46-2.65,16.62-4.27,25.34-5.76,5.97-1.07,11.09-2.25,17.06-3.29,8.78-1.31,17.14-1.48,26-1.5,20.33-.03,40.22,2.41,60.24,5.75,25.57,4.62,50.69,11.68,74.31,22.63,15.7,7.66,30.76,16.01,45.73,24.96,19.1,13.35,36.77,28.63,52.29,46.05,22.47,26.81,42.56,55.85,55.51,88.51,27.41,65.97,31.73,141.78,10.08,210.14-2.46,8.6-6.26,16.11-9.67,24.35-4.77,10.74-9.23,21.21-14.98,31.47-35.01,60.93-88.61,108.23-154.76,132.72-52.33,19.71-106.66,22.5-161.38,12.6-11.21-3.13-22.14-5.86-33.33-9.16-5.88-1.5-10.84-3.15-16.35-5.69-23.76-10.62-46.98-22.59-67.41-38.87-32.3-24.6-58.61-56.58-78.59-91.81-64.98-116.91-45.55-262.27,50.56-355.96,25.28-23.93,55.06-42.83,86.41-57.78,5.68-2.1,10.79-3.41,16.39-5.8,3.24-1.28,4.75-2.26,8.06-3.34,3.3-1.08,5.13-1.03,8.46-2.05,8.26-3.42,16.4-5.26,25.19-6.82,8.69-1.97,16.89-3.7,25.79-4.41,17.54-1.6,34.77-1.68,52.25.55,11.62,1.61,22.67,4.29,34.06,7.03,11.26,3.15,22.32,5.55,33.28,9.61,5.67,2.15,10.64,3.78,16.33,5.85,5.59,2.34,10.31,4.64,15.82,7.18,13.15,6.36,25.11,14.27,37.26,22.33,12.25,8.03,23.89,16.53,34.27,26.92,12.94,12,23.89,25.5,33.82,40.05,8.57,11.94,16.41,24.05,23.05,37.17,29.74,58.74,39.16,127.59,25.7,192.08-1.97,8.72-4.01,16.89-6.66,25.42-2.19,5.69-4.33,10.54-6.39,16.29-6.38,16.35-13.63,32.07-23.19,46.83-7.64,12.46-15.98,24.12-25.35,35.34-41.38,48.26-99.37,82.06-162.13,92.85-14.28,2.59-28.44,3.66-42.93,4.28-14.51.48-28.78,0-43.06-2.75-60.79-8.61-116.72-36.79-158.89-81.55-79.32-82.16-101.64-207.93-52.75-311.63,12.4-26.28,28.62-50.61,48.25-71.99,10.57-9.99,20.75-20.05,32.6-28.57,9.01-7.49,18.9-13.01,28.7-19.38,5.14-3.2,9.53-6.15,14.92-8.9,5.57-2.34,10.5-4.15,15.98-6.74,3.2-1.32,4.91-1.69,8.09-3.09,3.18-1.4,4.59-2.66,7.82-3.91,3.24-1.25,5.05-1.3,8.36-2.35,5.7-2.1,10.64-3.9,16.61-5.15,22.53-5.65,45.85-8.22,69.03-7.32,14.48.46,28.93,2.21,43.05,5.8,8.53,2.38,16.44,4.98,24.9,7.6,11.22,3.31,21.41,8.19,32.4,12.09,15.79,7.29,30.74,15.91,44.92,26,9.52,6.81,18.31,13.94,26.87,21.92,6.52,6.03,13.13,11.2,18.98,17.92,6.08,6.52,10.93,13.38,16.05,20.67,8.48,11.95,16.38,23.96,22.95,37.07,17.08,33.87,26.75,71.3,29.12,109.12.87,26-.64,51.17-6.76,76.29-4.89,16.88-10.41,33.38-17.63,49.41-3.64,8.15-7.87,15.38-12.24,23.15-2.78,5.44-5.41,10.01-9.01,14.95-20,28.51-45.06,53.45-74.38,72.32-5.2,3.13-9.52,6.13-14.62,9.39-5.3,2.92-10.14,5-15.61,7.58-36.81,16.71-77.08,25.97-117.59,24.18-152.86-5.12-265.79-141.71-248.17-292.45,7.3-60.12,36.14-119.33,82.26-159.03,4.63-3.92,8.41-7.58,13.02-11.52,9.31-7.12,18.83-13.27,28.59-19.73,7.61-4.59,15.42-7.64,23.13-11.99,8.37-2.93,15.82-6.7,24.2-9.68,43.05-16.67,101.92-17.99,145.56-2.87,10.89,4.33,21.55,8.18,32.11,13.26,7.8,4.19,15.59,7.18,23.3,11.54,45.34,27.35,81.35,66.18,103.7,114.33,12.09,26.6,18.98,55.3,21.5,84.36,1.58,16.23,1.5,32.01-.53,48.03-4.91,43.23-20.83,85.35-46.8,120.32-22.64,29.87-51.63,55.18-85.27,71.9-12.99,6.4-26.12,11.9-39.77,16.74-27.65,8.05-56.7,10.72-85.4,8.77-103.78-6.19-191.59-83.36-216.48-183.47-24.71-96.66,12.6-199.65,95.07-256.33,13.88-10.51,29.69-17.6,45.67-24.29,7.71-4.45,15.75-6.76,24.22-9.45,19.53-5.66,39.7-8.29,60.02-8.41,34.74-.15,69.61,7.84,100,24.89,10.05,5.89,20.23,10.72,29.89,17.28,7.09,5.23,13.76,10.19,20.39,16.01,48.67,41.27,79.18,103,81.97,166.79,4.47,78.2-32.82,156.16-97.69,200.35-7.32,5.01-14.62,9.04-21.72,14.34-12.82,6.71-26.07,12.71-39.87,17.12-41.82,10.78-86.75,12.06-128.31-.6-82.24-25.32-142.93-96.4-156.61-181.16-8.48-50.47.9-102.94,26.37-147.16,11.71-20.08,26.41-38.03,43.47-53.78,4.52-4.03,8.39-7.6,13.02-11.49,7.09-5.28,14.17-9.73,21.73-14.3,7.87-4.06,15.6-7.17,23.14-11.83,10.51-5.18,21.37-8.61,32.64-11.72,50.35-13.04,106.36-7.47,151.33,19.39,14.66,9.38,29.36,18.28,42.21,30.13,6.4,6.1,12.85,11.42,18.51,18.25,9.34,11.19,17.99,22.61,25.39,35.19,48.36,84.36,36.39,191.74-33.64,260.29-8.37,8.12-17.21,15.18-25.81,23.03-19.1,13.01-39.97,23.34-62.05,30.24-13.91,4.47-28.22,5.39-42.7,6.43-31.7,2.39-63.64-3.16-92.7-16.05-23.7-10.5-45.81-24.83-64.31-43.05-46.01-45.99-69.38-114.17-60.17-178.63,5.19-37.09,20.78-72.78,44.94-101.43,7.06-9.3,14.49-17.88,23.46-25.4,5.13-3.49,9.09-6.36,13.94-10.23,5-3.34,9.79-5.49,14.92-8.63,11.73-8.68,24.84-14.47,38.64-19.09,33.04-10.35,68.74-12.25,102.6-4.88,17.11,3.55,33.06,10.28,48.54,18.26,7.81,4.2,14.41,9.36,21.17,15.03,18.85,13.32,35.23,29.63,48.52,48.52,45.2,63.95,48.87,152.7,6.44,218.93-6.18,9.93-13.18,18.8-20.98,27.5-5.67,6.82-10.94,13.38-18,18.84-8.86,7.74-18.78,13.27-28.83,19.27-9.73,6.59-20.56,10.29-31.69,13.83-8.43,2.65-16.45,4.83-24.95,7.19-17.06,3.36-34.49,4.02-51.78,2.21-20.01-2.78-39.6-7.9-58.2-15.8-13.32-5.84-25.43-13.43-37.42-21.6-46.78-34.57-74.35-92.27-75.72-150.04-1.64-59.57,26.95-118.46,75.28-153.19,8.58-8.01,18.85-13.13,29.02-18.88,23.43-11.86,49.48-16.94,75.62-17.09,29.15-.57,57.87,7,83.57,20.62,12.84,6.87,25.41,14.62,34.4,26.28,42.96,37.62,65.71,94.07,61.57,150.87-2.25,28.73-11.47,56.8-26.97,81.1-6.68,12.96-15.57,24.33-26.29,34.21-6.4,6.1-12.69,11.6-20.28,16.18-7.55,4.58-14.85,8.49-22.22,13.34-10.45,5.03-21.41,8.06-32.65,10.81-14,3.24-28,5.45-42.4,5.27-31.46-.35-63.12-8.04-89.64-25.35-47.69-27.74-77.39-81.07-81.19-135.56-.71-6.13-.33-12.55-.56-19.55.35-11.74,2.2-22.98,5.02-34.37,7-25.01,18.56-49.05,35.83-68.6,15.1-17.65,33.38-32.35,54.48-42.2,18.38-8.69,38.22-14.49,58.64-14.86,26.2-2.23,52.38,3.61,76.25,14.34,15.89,7.3,29.81,18.03,42.48,29.97,41.18,41.48,61.25,96.89,49.03,154.5-1.75,8.66-4.28,16.56-7.3,24.85-3.38,11.24-8.35,21.55-14.59,31.49-6.27,9.95-14.02,18.36-22.56,26.4-6.49,6.03-12.58,11.83-20.44,16.03-10.35,5.37-19.38,12.47-30.48,16.29-8.34,2.84-16.42,4.86-25.16,5.91-8.63,1.46-16.77,2.66-25.53,2.92-25.66.48-52.15-3.94-74.44-17.17-7.63-4.34-15-8.13-22.14-13.28-20.61-15.84-37.62-36.42-47.95-60.37-19.39-43.26-18.67-95.92,5.21-137.51,2.77-5.36,5.66-9.63,9.07-14.6,2.96-5.3,5.81-9.69,10.25-13.87,20.46-20.01,44.66-37.06,72.81-43.89,5.87-1.27,11.01-2.32,16.95-3.1,6.01-.13,11.21-.36,17.2-.95,17.36.13,34.38,2.95,50.68,9.02,13.23,5.82,25.42,13.15,36.97,21.84,7.05,5.21,13.4,10.61,19.23,17.17,6.98,9.24,13.81,18.21,19.69,28.23,8.05,15.31,13.8,31.62,16.54,48.72,1.78,9.27,1.78,20.62,2.04,30.11-1.24,22.96-6.37,46.06-18.4,65.88-7.04,12.8-17.03,23.07-27.97,32.58-6.06,6.43-13.11,10.83-20.9,14.91-5.21,2.93-9.94,4.93-15.43,7.27-5.4,2.54-10.01,4.97-15.66,6.94-5.65,2.05-10.8,2.9-16.75,3.56-8.64,1.29-16.85,1.71-25.58,1.53-14.44.04-28.27-3.37-41.47-9.09-8.23-2.84-15.94-5.66-23.3-10.39-7.49-4.48-14.57-8.78-20.97-14.76-6.13-6.24-12.2-11.86-17.59-18.78-14.18-18.15-23.52-39.79-27.43-62.48-1-5.94-1.5-11.14-1.84-17.15-.86-5.3-1.12-13.12,0-19.58,1.31-8.77,3.14-16.97,5.28-25.54,2.12-5.65,4.73-10.24,6.84-15.92,1.81-5.86,3.89-10.66,7.84-15.41,5.49-6.9,10.21-13.66,16.38-19.98,2.28-2.59,3.08-4.27,5.6-6.6,2.52-2.33,4.21-3.03,7-5.05,13.72-10.36,28.79-18.87,45.2-24.14,5.84-1.32,10.95-2.57,16.82-3.65,3.41-.41,5.18.04,8.61-.23,4.25-.56,8.16-1.56,12.36-.84,5.45,1.13,10.26.65,15.68,1.69,13.1,2.78,26.17,7.09,38.19,13.17,7.74,4.06,15.02,8.1,21.85,13.59,4.33,4.14,8.12,7.76,12.54,11.8,19.01,21.52,33.12,48.28,36.39,77.07.63,10.62,1.02,20.2-.57,30.49-3.01,20.03-10.36,39.58-22.77,55.71-3.57,4.93-7.43,8.42-11.74,12.65-2.36,2.54-3.14,4.23-5.61,6.65-6.5,5.93-13.73,10.29-21.26,14.78-7.71,4.28-15.97,5.72-24.24,8.49-16.44,4.71-33.51,6.15-50.44,3.47-5.9-.72-10.89-1.86-16.62-3.47-8.54-1.9-16.29-4.77-23.84-9.24-10.31-5.33-19.74-11.77-27.2-20.75-16.14-16.47-28.08-37.09-32.55-59.83-1.37-5.91-1.98-11.1-2.38-17.14-.44-4.13-1.35-15.57-.24-21.69,1.29-8.69,3.06-16.92,6.27-25.11,2.38-5.5,5.04-9.97,7.62-15.38,1.51-3.09,1.76-4.98,3.68-7.79,1.92-2.82,3.64-3.72,5.91-6.29,12.08-15.83,27.86-28.36,46.34-35.92,13.03-5.58,26.9-9.79,41.19-9.45,6.6-.19,11.69.97,17.89,2.47,16.35,2.93,31.96,9.52,45.54,19.13,7.17,4.91,12.76,10.91,18.78,17.13,4.28,4.18,7.67,8.07,11,13.06,5.3,7.07,8.8,14.65,11.99,22.86,3.35,8.22,5.67,16.34,6.31,25.22,2.8,35.25-6.07,59.36-29.18,86.07-9.6,11.9-29.06,23.08-43.82,26.9-5.89,1.19-11.01,2.24-16.89,3.44-5.95.94-11.2.9-17.18.39-14.45-.89-28.43-3.89-41.3-10.71-13.19-6.17-24.69-15.15-33.02-27.15-15.17-17.61-24-40.36-23.94-63.67-.16-6.82-.24-14.79,1.54-21.65,1.52-5.83,2.96-10.95,5.09-16.57,2.51-5.45,5.42-9.85,8.63-14.91,9.04-14.6,22.67-25.57,37.83-33.34,13.85-7.28,29.21-12.93,45.07-11.76,7.45.65,13.55,3.35,20.72,5.44,13.57,4.23,26.26,10.79,37.22,19.88,6.71,5.68,11.57,12.43,16.64,19.56,8.87,11.62,13.85,25.7,15.02,40.25,2.03,22.39-1.9,43.36-16.42,61-5.17,7.04-9.45,14.37-16.84,19.36-7.03,5.15-14.57,8.89-22.7,11.92-5.7,1.48-10.88,1.94-16.68,3.06-21.98,4.69-46.17-2.48-64.17-15.43-7.27-4.99-11.9-12-17.04-19.01-8.71-11.46-14.61-24.83-16.18-39.2-1.38-12.91,0-25.8,4.13-38.1,3.96-10.76,10.92-19.85,18.89-27.95,6.22-5.93,13.08-10.28,20.72-14.18,7.5-4.31,15.14-7.67,23.81-8.75,9.05-.97,18.32-1.06,26.87,2.08,6.84,3.99,14.31,6.99,21.44,10.59,19.77,11.38,33.63,32.15,36.45,54.8,1.46,10.78,1.29,21.84-2.66,32.09-2.05,5.67-4.82,10.11-8.13,15.1-4.58,7.41-9.21,14.55-16.58,19.47-4.94,3.29-9.69,5.65-15.26,7.66-8.26,2.25-16.32,3.74-24.86,4.35-14.17.05-27.92-4.82-39.54-12.81-9.93-6.09-15.68-16.22-21.22-26.16-12.29-21.78-8.09-50.41,7.56-68.04,7.48-8.68,17.27-14.24,27.83-18.38,10.57-4.85,22.69-4.49,33.63-1.15,13.19,4.98,25.39,14,33.06,26,8.14,13.15,12.66,30.55,7.23,45.07-.81,3.28-.69,5.18-2.09,8.18-2.76,5.01-6.49,8.83-10.2,13.16-8.3,9.08-15.96,13.42-28.18,15.19-16.34,2.97-32.7-3.81-44.43-15.09-4.65-3.77-7.1-8.15-8.74-13.86-3.2-7.05-5.29-15.9-4.34-19.7-.7-10.71,3.55-21.3,10.9-29.08,5.73-6.44,13.2-10.26,21.42-12.61,19.93-6.92,41.37,7.45,47.66,26.56,1.85,5.13,2.42,9.56,2,15.12,2.71,10.47-5.23,20.56-13.64,26.03-8.93,6.11-20.53,7.65-30.5,3.27-7.45-3.13-14.76-7.91-18.56-15.26-1.32-2.98-1.18-4.97-1.53-8.25-.54-5.03-2.05-3.25.11-12.03.76-3.07,1.09-4.76,2.66-7.49,8.09-14.46,29.54-15.73,39.67-2.79,10.78,13.02,5.15,35.52-14.41,31.18-8.12-1.56-13.96-11.36-11.33-18.69,1.7-3.14,6.06-4.89,9.29-2.99,1.53.84,3.47,2.54,2.75,4.04-.35.71-1.28.97-1.97,1.29-3.87,1.37-5.26,7.11-1.68,9.58h0c4.5,4.03,12.54,2.51,15.46-3.09,3.85-8.33-1.5-18.32-9.17-22.22-12.82-7.35-30.33,4.92-28.06,19.48,1.87,12.44,10.29,25.09,23.52,26.91,9.63,1.77,19.37-2.66,25.53-9.99,7.16-8.47,8.38-20.27,4.93-30.66-5.47-17.61-25.61-29.36-43.59-25.09-15.22,4.2-27.88,17.87-28.72,33.98-.32,5.54-.04,10.1,1.29,14.38,2.26,5.96,5.6,11.2,8.91,16.69,9.88,17.24,32.38,23.05,50.58,16.91,12.12-3.91,22.33-13.22,27.03-25.07,1.41-3.46,1.59-5.36,2.59-8.97,1-3.61,2.1-5.4,2.41-9.09.37-4.45-.66-3.74-.97-6.95-.8-9.18-3.55-17.72-8.54-25.48-7.9-13.07-21.68-20.99-36.55-23.39-8.97-1.12-17.86-1.92-26.69.62-24.85,7.6-41.53,37.06-36.09,61.96,1.35,13.02,5.44,23.58,14.25,33.39,11.31,15,29.92,22.81,48.46,22.82,15.52.18,30.17-6.5,41.76-16.55,11.9-10.14,19.25-24.12,20.49-39.73,3.63-24.43-7.65-53.7-28.42-68.44-7.17-6.12-15.89-8.38-24.92-10.26-14.6-3.67-29.85-2.73-44.22,1.61-20.59,6.71-35.18,25.43-42.09,45.37-5.81,18.06-3.71,38.11,3.11,55.64,3.05,8.77,7.79,16.32,14.65,22.6,6.51,6.42,13.06,12.11,21,16.7,15.62,9.33,34.28,11.76,52.14,9.65,17.74-3.78,32.81-14.4,45.93-26.54,7.31-5.88,11.22-13.96,14.46-22.58,4.86-11.98,7.35-27.29,6.44-39.64-1.92-22.64-13.4-48.57-31.2-63.06-6.61-6.5-14.03-11.34-22.53-15.04-5.78-2.78-11.22-3.82-17.59-3.99-11.98-.68-23.48-1.43-35.39.42-9.12,1.07-17.82,2.86-25.8,7.63-18.62,10.38-32.55,27.81-40.14,47.58-4.31,14.45-6.96,23.84-5.93,40.08,2.15,20.98,9.01,42.05,22.77,58.32,8.78,8.34,17.7,16.2,28.13,22.47,13.16,7.36,27.73,11.94,42.86,12.22,12.39.4,23.97.34,35.22-5.5,11.47-3.84,21.64-9.84,30.92-17.57,4.57-4.28,8.96-7.6,13.61-11.79,4.33-4.61,7.06-9.53,9.91-15.15,7.04-13.44,11.41-27.87,12.53-43.03,1.23-10.74-.76-20.71-2.94-31.41-3.52-18.01-11.92-34.37-22.83-48.96-3.98-5.03-8.32-8.53-13.42-12.36-11.73-9.8-25.44-16.76-40.31-20.32-6.16-1.76-11.66-1.89-18-1.51-12.09-.17-23.78.3-35.77,1.9-20.99,4.02-39.72,16.54-53.92,32.21-2.27,2.86-2.89,4.73-4.99,7.72-3.94,5.03-7.39,9.34-9.99,15.22-3.94,8.42-6.03,17.01-8.57,25.91-2.35,12.59-4.21,26.19-2.33,38.32,3.06,25.42,15.11,54.39,34.86,71.22,11.18,9.91,23.02,19.02,37.07,24.42,13.8,6.01,28.28,9.95,43.44,9.44,12.01-.49,23.86-1.84,35.21-5.9,8.08-4.16,15.97-7.55,23.85-12.07,10.23-6.31,18.82-14.28,27.73-22.28,22.09-26.71,33.01-61.49,27.23-96.25-1.49-9.05-2.87-17.62-5.42-26.44-2.82-8.8-7.02-16.49-11.8-24.36-3.42-5.3-6.36-9.97-10.19-14.98-5.83-7.2-13.05-12.28-19.82-18.5-17.85-12.56-35.76-21.04-57.65-23.67-9.08-.73-17.72-.8-26.81-.77-20.83,2.25-41.67,7.23-59.23,19.19-17.28,11.98-33.71,26.8-41.25,46.91-1.73,3.18-3.39,4.36-5,7.59-2.66,5.71-3.82,11.2-5.49,17.26-2.59,8.86-3.91,17.44-4.39,26.65-1.36,11.86-.63,28.18,2.71,40.51,5.55,23.54,17.4,45.35,33.81,63.06,6.72,6.24,13.41,11.74,20.7,17.31,9.75,7.28,20.57,12.1,31.61,17.08,11.3,4.54,23.19,5.74,35.26,6.34,12.04.73,23.77-.02,35.62-2.33,8.99-1.77,17.64-3.19,25.84-7.5,10.71-5.63,20.87-11.63,30.1-19.48,5.28-3.47,9.65-6.71,13.62-11.68,15.47-18.36,28.17-39.33,33.79-62.86,1.52-6.13,2.43-11.54,3.03-17.82.34-3.6,1.49-5.42,1.57-9.03.45-22.94-4.68-46.89-14.4-67.82-7.38-16.5-18.5-30.93-32.13-42.74-8.76-8.28-17.66-15.92-28.46-21.43-18.34-9.97-38.79-14.9-59.51-16.46-6.17-.06-11.57-.47-17.73-.42-3.53.25-5.25.98-8.76,1.51-6.19.57-11.42,1.44-17.37,3.31-17.48,4.01-34.09,10.76-48.59,21.44-7.79,4.99-13.15,11.85-19.42,18.49-2.57,2.5-4.54,3.16-6.82,5.9-2.28,2.74-2.47,4.9-4.6,7.8-2.14,2.9-3.94,3.8-6.08,6.7-5.29,7.54-8.05,15.94-12.25,24.08-3.07,8.64-5.75,16.93-7.53,25.95-1.95,9.86-2.37,19.47-2.54,29.51-1.09,27.87,7.77,55.5,21.78,79.01,9.46,15.25,20.66,29.58,35.06,40.41,9.3,7.69,18.9,14.49,29.79,19.75,8.28,3.85,16.69,5.81,25.39,8.48,14.34,4.36,29,6.55,44.01,6.04,12.04-.4,23.76-1.92,34.95-6.52,11.49-3.42,22.36-7.58,33.27-12.51,5.53-2.91,9.7-6.46,14.58-10.32,4.98-3.73,9.41-6.8,14.04-10.98,12.89-12.46,23.57-26.85,32.22-42.54,24.05-40.72,24.2-92.42,6.07-135.25-8.23-19.45-20.01-37.37-35.57-51.71-8.46-8.64-17.68-16.01-28.21-21.98-18.2-9.87-37.7-17.45-58.12-21.14-11.79-1.98-23.38-2.05-35.28-2.19-11.87,1.08-23.33,2.84-34.85,6.02-17.39,4.43-33.13,12.85-48.38,22.11-15.14,9.97-27.47,23.12-38,37.8-18.72,23.84-28.71,53.7-30.31,83.83-1.71,15.42.04,33.97,3.69,49.6,7.33,32.35,24.79,61.93,48.22,85.25,4.4,4.49,8.67,7.82,13.69,11.58,4.85,3.97,9.05,7.41,14.34,10.78,12.7,8.03,26.61,13.32,40.79,18.13,22.77,7.56,46.97,9.23,70.71,6.23,20.96-2.36,39.77-12.04,58.89-20.26,8.27-3.99,14.58-10,21.88-15.45,14.56-10.68,26.05-24.44,36.76-38.86,3.62-5.15,6.94-9.53,10.28-14.86,3.09-5.51,5.19-10.62,7.59-16.46,10.98-27.53,14.46-57.38,10.79-86.85-4.75-38.7-22.33-75.69-49.34-103.81-4.24-4.7-8.77-7.7-14.11-10.99-13.82-11.16-28.97-20.18-45.29-27.22-27.07-10.99-56.89-16.09-86.02-12.92-26.3,2.98-52.08,10.76-75.05,24.03-9.93,6.71-19.32,13.57-28.61,21.15-8.99,8.06-16.49,17.12-23.85,26.67-36.19,50.16-43.63,119.04-20.07,176.11,12.52,30.34,32.83,57.55,58.69,77.8,7.16,5.6,13.85,11,21.74,15.55,5.44,3,10.29,5.36,15.88,8.09,21.56,9.87,44.78,16.88,68.67,16.51,20.68.04,41.62-.75,61.47-7.01,14.31-4.38,27.13-11.64,40.66-17.85,10.29-6.16,19.28-13.64,28.51-21.27,9.01-7.99,17.41-16.11,25.48-25.05,10.95-14.38,20.31-29.77,26.81-46.7,26.62-65.77,12.45-145.5-33.65-199.31-9.73-11.44-20.12-22.23-32.68-30.56-5.35-3.19-10.21-5.59-15.56-8.77-30.34-18.23-65.57-27.7-100.91-28.2-29.58-.36-58.68,7.25-85.48,19.44-8.08,4.16-16.3,6.96-23.82,12.17-14.21,11.01-27.1,23.23-39.66,36.09-42.65,47.93-56.8,118.19-40.96,179.76,9.84,40.75,33.44,77.33,64.87,104.83,11.38,9.61,22.77,18.95,36.17,25.63,23.43,12.74,49.02,20.79,75.62,23.03,20.53,2.38,41.13,1.41,61.3-3.12,8.84-1.67,17.17-3.24,25.66-6.29,19.61-6.73,38.32-15.63,54.72-28.44,4.95-3.77,9.54-6.6,14.6-10.2,7.1-5.72,12.98-12.04,19.04-18.84,53.81-60.9,65.99-148.87,34.11-223.15-13.56-29.9-32.07-57.81-57.47-78.94-9.16-7.78-18.29-15.1-28.93-20.76-8.04-4.16-15.9-7.44-24.17-11.11-37.78-15.9-80.12-22.21-120.66-15.15-17.55,2.75-34.31,8.03-50.74,14.71-5.95,1.83-11,3.69-16.33,7-12.84,7.62-24.52,16.5-36.19,25.78-59.71,48.56-86.23,131.58-71.44,206.43,10.44,56.82,43.06,106.25,89.51,140.24,26.32,19.3,57.33,31.69,89.36,37.54,28.96,5.8,59.27,5.73,87.8-2.28,14.34-3.83,28.45-7.55,42.07-13.53,11.13-4.6,20.73-11.28,31.63-16.28,35.23-22.64,63.03-56.26,80.32-94.29,12.64-27.31,18.5-57.25,19.89-87.2,2.22-60.95-21.56-123.72-63.65-168.13-10.13-11.11-21.51-20.54-33.71-29.29-7.26-5.52-14.52-10.11-22.56-14.42-8.02-4.29-16.09-7.2-24.61-10.32-11.21-4.09-22.16-7.71-33.86-10.14-40.21-9.42-82.57-7.66-122.14,3.97-5.85,2.06-11.01,3.56-16.96,5.29-5.85,2.11-10.72,4.45-16.27,7.24-8.12,4.12-15.22,8.9-22.82,13.9-10.1,6.54-19.95,12.84-28.62,21.28-37.96,34.05-63.83,81.06-73.02,131.17-25.75,144.84,80.12,278.05,227.26,285.04,14.84.61,29.43-.42,44.13-2.49,14.64-2.53,28.65-6.53,42.75-11.18,8.63-2.75,16.4-6.22,24.9-9.33,8.32-3.63,15.72-7.95,23.39-12.79,69.75-43.1,114.83-124.14,113.15-206.23l-.02-.06c.99-89.82-50-178.17-129.19-220.98-5.18-3.57-10.05-5.71-16.02-7.65-15.98-7.81-33.35-11.47-50.65-15.24-37.3-7.88-76.26-7.61-113.26,1.78-6.06,1.24-11.09,2.87-17.02,4.59-6.16,1.05-11.39,2.21-16.97,5.12-5.53,2.82-10.47,4.9-16.14,7.37-5.47,2.91-9.76,6.21-15.19,9.2-5.68,2.61-10.42,5.08-15.31,9.01-14.54,10.45-28.58,21.4-40.04,35.25-10.42,10.8-19.51,22.41-27.45,35.16-57.24,88.69-51.54,206.88,11.07,291.49,56.39,77.16,156.49,119.12,250.86,101.02,8.88-1.82,17.26-3.38,26.06-5.59,14.36-4.1,28.11-9.31,41.47-16.01,8.26-3.87,15.31-8.75,23.42-12.88,12.74-7.88,24.49-16.78,35.62-26.82,35.48-32.04,62.05-73.9,75.62-119.75,6.92-23.07,9.12-46.97,10.75-70.88.4-10.15-.45-13.75-1.02-22.5-1.57-20.96-4.91-41.62-11.3-61.67-7.44-22.76-16.94-44.73-29.73-65.02-13.07-19.99-27.79-38.85-45.39-55.05-17.63-16.11-37.33-29.51-58.55-40.4-5.66-2.6-10.34-5.32-15.91-8.05-5.84-2.07-11.06-3.51-16.83-5.82-11.25-4.17-22.77-5.8-34.54-7.81-23.21-4-46.61-5.96-70.15-4.4-20.66,1.22-40.76,5.33-60.84,10.14-3.39.99-4.95,1.93-8.34,3-3.38,1.07-5.26,1.1-8.59,2.33-5.72,2.63-10.37,4.87-16.29,7.08-10.56,5.67-21.28,10.26-31.52,16.54-59.89,39.43-103.98,102.71-117.73,173.39-15.73,76.97,3.57,160.26,51.13,222.82,32.28,42.48,77.25,75.1,127.3,93.4,30.61,10.89,63.11,16.65,95.63,15.43,20.76-.08,41.27-2.34,61.39-7.54,54.51-13.82,105.07-44.37,141.31-87.56,9.58-11.52,18.67-23.06,26.49-35.88,9.24-15.41,16.89-31.5,23.46-48.21,2.26-5.84,3.64-11.08,5.11-17.16,3.17-11.64,5.88-22.95,7.95-34.84,3.83-20.2,4.65-36.1,3.76-57.96-1.26-44.77-14.2-88.8-35.7-127.99-16.57-31.74-41.32-57.99-67.14-82.4-24.84-21.23-53.98-36.59-84.2-48.67-11.25-4.01-22.43-7.16-34.16-9.38-8.85-1.85-17.36-2.06-26.33-3.03-23.37-2.38-46.8-2.62-70.13.35-8.92,1.02-17.35,1.78-26.12,3.8-5.97,1.51-11.14,2.78-17.14,4.15-8.58,2.87-17.1,3.96-25.38,7.72-5.79,2.23-10.45,4.9-15.98,7.67-8.4,3.37-16.18,6.86-23.92,11.63-12.84,7.64-25.02,15.78-36.3,25.61-9.25,7.67-17.28,16.08-25.74,24.6-37.34,38.67-62.28,88.73-72.62,141.37-16.12,81.08,4.1,167.7,53.26,233.87,12.49,16.79,26.42,32.28,42.79,45.38,9.26,7.65,17.78,15.57,28,21.97,29.69,19.51,62.33,34.71,96.96,42.96,17.39,3.87,34.9,6.07,52.66,7.5,59.26,2.86,119.1-13.22,169.06-45.17,32.67-20.79,60.98-48.2,83.19-79.9,6.9-9.91,13.05-19.88,18.32-30.75,4.38-8.03,8.37-15.65,11.77-24.16,3.77-8.37,5.97-16.71,8.46-25.52,5.46-17.14,9.26-34.54,11.55-52.38,2.26-16.09,2.68-24.72,2.62-42.49-.06-26.89-4.3-53.43-11.71-79.24-9.53-34.39-25.82-66.57-46.12-95.83-6.96-9.77-14.95-18.17-23.04-26.98-8.21-8.66-16.26-16.95-25.46-24.57-13.74-11.26-27.02-22.91-42.37-31.95-12.74-7.66-26.05-13.61-39.76-19.31-8.17-3.89-16.07-7.03-24.8-9.42-30.8-10.65-63.58-12.27-95.9-10.94-14.71.96-29.12,2.08-43.75,3.88-8.86,1.51-17.17,3.15-25.92,5.23-5.88,1.87-10.99,3.37-16.95,4.94-8.54,2.9-16.25,6.49-24.67,9.69-5.55,2.71-10.43,4.9-16.1,7.33-5.43,2.95-10.12,5.53-15.64,8.34-15.33,9.11-29.65,19.45-42.83,31.47-32.2,26.51-57.36,60.52-75.79,97.8-28.24,57.79-37.13,124.23-26.25,187.58,10.45,61.75,39.65,120.11,83.12,165.23,14.74,14.68,30.81,27.7,47.6,39.95,36.57,24.97,78.11,43.02,121.84,50.58,96.77,17.46,199.25-14.86,268.82-84.27,25.77-24.87,46.07-54.65,62.02-86.62,2.64-5.65,5-10.52,7.41-16.27,2.79-8.67,5.66-16.76,8.49-25.44,31.36-97.01,13.64-202.01-44.9-285.23-8.42-12.38-18.38-23.14-28.77-33.86-18.35-19.35-38.95-36.24-61.53-50.44-9.9-6.7-19.7-12.9-30.42-18.21-8.1-4.06-16.11-6.96-24.48-10.38-35.73-13.99-74-22.15-112.51-20.54-6.16.32-11.5.47-17.65.76-6.13.61-11.41,1.36-17.58,1.69-9.03.43-17.46,1.46-26.26,3.56-46.22,9.64-91.16,27.97-128.3,57.49C36.1,163.19-7.8,306.65,31.85,437.2c50.27,166.84,222.39,267.28,392.09,224.46,83.64-20.78,158.08-76.41,201-151.19,6.15-10.36,11.97-20.49,16.87-31.52,4.26-11.28,8.76-22.04,12.57-33.5,17.54-53.08,22.14-110.32,11.85-165.57-8.94-52.84-31.47-102.72-63.14-145.8-8.77-12.08-18.82-22.69-29.37-33.21-10.5-10.51-21.28-20.31-33.02-29.42-23.23-18.3-48.98-32.6-75.64-45.25-10.62-5.56-21.73-8.77-33.19-12.07-11.12-4.42-22.52-6.47-34.18-9-23.2-4.6-46.74-6.11-70.33-4.52-6.17.02-11.45.48-17.57,1.26-8.96.84-17.45.83-26.35,2.32-20.47,3.21-40.04,9.24-59.79,15.37-28,9.53-54.26,23.45-78.17,40.84-10.15,6.4-19.24,13.51-28.09,21.6-9.09,7.8-17.51,15.77-25.6,24.6-20.19,21.84-37.94,45.76-51.73,72.17C16.47,223.64,2.61,273.47.36,324.16c-.4,5.37-.23,10.79-.36,15.98.18,4.97,7.32,4.94,7.45,0,.08-13.88.68-27.96,2.55-41.78,8.33-69.4,39.27-135.78,86.7-187.07,8.07-8.53,16.14-16.5,24.94-24.27,9.03-7.48,17.97-14.45,27.23-21.64,21.62-14.61,44.78-26.54,68.88-36.45,8.26-3.17,15.92-6.46,24.39-9.04,14.03-3.81,27.9-7.15,42.29-9.3,8.74-1.35,16.86-3.36,25.71-3.95,6.05-.21,11.29-.3,17.34-.61,28.87.58,57.64,3.43,85.72,10.22,5.84,1.6,10.98,2.6,16.85,3.98,5.81,1.66,10.64,3.75,16.32,5.84,8.27,3.16,16.25,5.54,24.45,8.91,16.12,6.79,31.21,15.3,45.77,24.97,19.51,12.75,37.42,27.66,53.69,44.34,13.96,14.92,26.49,30.91,38.27,47.59,34.36,50.87,53.89,111.32,56.65,172.59,1.69,33.61-2.02,69.52-11.26,102.29-4.76,16.97-10.11,33.69-18.43,49.26-5.02,10.7-9.91,21.03-15.96,31.19-4.8,7.54-9.57,14.45-14.4,21.97-24.19,32.77-53.6,61.65-88,83.61-103.94,67.85-240.63,67.86-344.57,0C34,523.54-15.79,338.65,61.02,192.45c16.12-31.02,37.05-59.43,62.78-83.16,18.29-18.76,40.1-33.49,63.01-46.01,22.68-12.97,46.78-23.03,72.12-29.44,14.04-3.97,28.27-5.58,42.56-8.41,20.15-2.67,40.45-1.69,60.6.35,31.61,3.11,62.97,9.88,92.37,21.99,15.85,7.34,31.61,14.36,46.76,23.11,26.99,17.2,51.93,38.04,71.95,63.1,10.82,13.85,21.45,27.58,30.45,42.71,9.1,15.09,16.44,30.89,22.84,47.31,22.86,58.56,27.83,124.21,13.91,185.44-40.92,169.97-211.49,273.55-380.72,224.35-19.44-5.74-38.21-13.14-56.15-22.61-15.41-8.21-29.7-17.88-43.71-28.26-13.91-10.66-25.85-23.16-37.69-36.01-62-67.78-90.74-164.31-75.85-254.91,8.46-51.59,29.86-101.22,63.29-141.55,13.02-15.58,26.52-30.77,42.72-43.12,11.51-8.9,23.19-17.06,35.75-24.41,5.02-3.43,9.57-5.95,15.03-8.59,5.19-3.15,9.83-5.51,15.49-7.74,7.91-4.01,15.84-6.51,24.22-9.34,5.6-2.35,10.56-3.93,16.48-5.29,16.69-4.98,33.57-8.75,50.88-10.79,20.33-1.58,40.47-.83,60.55,2.6,28.38,4.92,56.56,11.55,83.14,22.78,13.26,6.01,25.64,13.02,38.06,20.61,12.67,7.24,24.68,15.13,35.6,24.85,15.43,13.42,29.55,28.01,41.27,44.81,8.64,11.82,17.12,23.42,24.13,36.31,18.33,33.19,30.48,69.77,35.04,107.44,3.63,25.43,3.3,51.08.54,76.56-3.16,23.22-8.19,46.24-17.97,67.63-5.63,13.52-10.92,27-18.76,39.42-50.7,89.43-148.14,146.15-251.16,144.14-14.53-.27-28.76-1.02-43.1-3.48-22.68-4.72-45-10.57-66.33-19.79-24.22-10.11-45.75-24.97-66.54-40.78-46.03-40-81.37-93.31-95.85-152.87-13.8-55.35-11.46-114.41,8.05-167.94,18-48.87,48.93-93.85,90.68-125.33,16.02-12.58,33.37-22.87,51.07-32.83,8.13-3.49,16.06-6.09,24.25-9.48,13.14-6.46,27.21-9.74,41.48-12.81,23.38-5.71,47.77-6.54,71.66-4.8,10.71.9,21.58,2.49,31.95,5.68,11.31,2.95,22.28,5.66,33.29,9.59,13.73,4.77,27.27,9.35,40.14,16.18,7.62,4.51,15.1,8.2,22.47,13.15,14.54,9.7,28.17,20.26,41.61,31.42,21.68,19.62,38.51,43.79,53.06,69.01,15.52,28.19,25.91,58.99,30.86,90.77,3.1,17.98,4.85,39.14,3.3,56.79-.65,20.46-3.26,40.72-8.81,60.45-2.28,8.64-5.8,16.27-8.82,24.66-3.24,8.28-6,16.19-10.18,24.06-13.18,25.81-29.29,50.24-50.04,70.61-42.96,43.82-98.84,71.2-159.77,78.42-17.2,2.64-34.34,2.43-51.63.91-25.86-2.11-51.21-8.04-75.39-17.43-98.55-37.16-166.87-137.03-170.28-241.71-3.47-82.12,32.78-166.13,98.01-216.7,6.91-5.58,13.58-10.57,21.19-15.16,7.41-4.88,14.12-9.93,22.07-13.93,5.54-2.51,10.24-4.9,15.68-7.58,3.2-1.36,5-1.53,8.22-2.86,3.22-1.33,4.64-2.51,7.89-3.78s5.02-1.44,8.33-2.55c32.74-12.44,68.56-15.18,103.26-11.88,11.72,1.2,22.98,3.28,34.25,6.73,8.45,2.76,16.25,5.77,24.66,8.62,5.85,1.78,10.5,4.19,15.91,6.95,5.69,2.1,10.6,3.89,15.91,6.91,20.72,10.56,39.68,24.06,56.81,39.78,10.78,9.88,20.79,20.23,29.99,31.59,15.91,20.93,29.25,43.79,38.59,68.4,6.14,16.53,10.49,33.44,13.57,50.79,3.22,19.72,3.38,25.93,3.12,48.14.44,11.81-.69,23.24-2.72,34.88-7.58,42.97-24.79,84.38-52.04,118.61-28.75,36.22-67.34,64.68-110.94,80.24-43.18,16.49-90.89,19.18-136.03,9.8-111.15-22.79-192.79-122.15-198.14-234.81-3.43-62.45,17.74-125.68,58.28-173.35,5.38-7.09,11.69-12.57,18.17-18.61,10.26-10.34,21.53-19.16,33.79-26.99,4.7-3.9,8.88-7.06,14.51-9.51,5.58-2.41,10.19-4.85,15.49-7.77,5.5-2.51,10.59-3.85,16.11-6.33,3.16-1.45,4.55-2.72,7.75-4.09,43.56-15.74,92.31-17.84,136.99-5.43,14.1,3.86,26.95,10.32,40.32,16.01,5.2,3.24,9.61,5.8,15.25,8.2,32.9,18.18,61.22,44.38,82.83,75.09,26.18,38.55,41.3,84.32,42.89,130.91,1.94,74.69-30.41,147.5-89.33,193.93-11.29,9.09-23.22,16.8-36.04,23.54-15.1,8.55-30.73,15.8-47.7,19.82-55.77,13.89-116.64,8.31-167.49-19.15-89.45-47.8-139.35-150.91-120.9-250.64,8.67-48.7,33.65-94.05,70.11-127.46,13.12-11.5,26.08-23.09,42.01-30.6,10.36-5.48,20.78-9.93,31.23-15.18,16.35-6.2,33.1-10.84,50.51-12.85,37.49-4.83,76.27.42,110.82,15.87,15.66,7.68,30.39,16.67,44.9,26.32,28.1,20.56,51.56,47.31,67.87,78.09,22.73,42.24,30.82,92.44,24.15,139.71-6.83,42.87-26.27,83.84-55.74,115.79-7.9,8.59-16.2,16.26-25.37,23.47-7.02,5.4-13.87,10.14-20.66,15.79-9.91,6.18-20.21,11-30.89,15.74-10.72,4.78-21.4,8.57-32.96,10.76-34.04,5.86-69.41,6.58-102.93-2.6-30.59-8.78-59.01-24.13-83.37-44.61-28.75-24.42-49.94-57.01-62.92-92.28-31.22-86.93-5.44-180.31,65.11-239.81,6.92-5.49,13.67-10.4,21.52-14.48,7.76-4.25,15.17-7.96,22.59-12.76,47.01-22.34,103.12-24.78,152.07-7.18,8.27,3.18,15.97,6.42,23.76,10.65,7.75,4.28,14.38,9.35,21.7,14.29,14.47,9.65,27.4,20.94,39.03,33.87,71.62,78.74,72.1,202.54-2.04,279.79-4.14,4.38-7.99,7.83-12.3,12.04-5.84,6.66-12.28,12-19.83,16.65-17.06,10.86-34.87,20.28-54.4,25.82-11.03,3.83-22.11,6.17-33.77,6.96-20.09,1.78-40.35,1.66-60.05-3.04-25.3-5.74-49.42-15.55-70.86-30.24-29.28-18.55-52.18-46.26-67.09-77.39-28.83-57.72-28.19-129.33,4.25-185.45,7.2-12.67,15.86-24.09,24.82-35.55,9.32-11.26,20.69-20.25,33.19-27.72,7.37-4.93,13.62-10.59,21.68-14.43,25.63-13.87,54.77-19.96,83.78-20.27,26.19-.24,52.38,4.89,76.05,16.26,10.69,4.84,20.95,9.97,30.08,17.44,15.08,13.53,31.1,25.98,43.07,42.55,45.82,58.74,52.75,143.74,15.39,208.46-4.2,7.79-8.8,14.68-14.29,21.61-7.96,12.24-17.93,22.69-29.34,31.77-6.9,5.56-14.14,9.68-21.77,14.14-5.06,3.3-9.43,6.24-15.01,8.64-10.78,4.36-21.58,7.66-32.86,10.45-11.27,2.85-22.28,5.37-33.95,5.73-11.64.76-22.85-.66-34.31-2.62-11.47-1.76-22.42-4.21-33.41-7.98-11.03-3.66-21.36-8.31-31.22-14.48-12.75-7.05-24.28-15.42-34.58-25.76-53.08-51.19-70.78-136.45-39.95-203.99,11.73-26.37,29.89-49.41,51.89-67.98,6.84-5.61,14.22-9.46,21.67-14.17,17.22-10.66,36.63-17.5,56.62-20.64,34.73-5.07,69.8-.07,101.25,15.71,8.01,3.8,15.11,8.22,22.26,13.45,7.28,5.14,13.96,10.21,19.13,17.57,14.16,14.39,26.74,30.07,35.92,48.13,14.92,30.41,21.67,65.12,17.45,98.8-2.42,20.2-8.54,39.64-17.91,57.68-3.38,8.24-7.39,15.64-12.55,22.91-8.53,11.91-18.97,21.95-30.16,31.34-4.72,3.87-9.32,6.45-14.65,9.35-5.29,2.97-9.62,5.94-14.86,8.99-15.39,8.29-32.73,10.99-49.79,13.72-28.08,3.85-58.36.31-84.5-10.76-5.59-2.31-10.17-4.84-15.33-7.98-7.6-4.47-14.82-8.63-21.91-13.88-17.87-14.84-33.33-32.47-43.87-53.29-13.86-27.65-19.74-57.4-18.36-88.46,2.11-25.97,10.9-50.95,24.01-73.37,8.46-15.3,21.18-27.24,34.19-38.65,6.95-5.41,13.34-10.8,21.05-15.14,10.17-5.74,20.69-10.04,31.8-13.6,15.26-4.78,31.35-6.28,47.21-6.36,18.66,1.08,37.43,4.38,54.66,11.96,18.49,8.26,34.6,20.89,49.26,34.71,33.25,35.11,50.25,82.68,44.15,130.7-1.19,11.63-3.98,22.56-7.74,33.61-2.74,8.43-5.94,16.19-10.46,23.83-4.55,7.6-9.36,14.47-15.24,21.09-6,6.48-12.27,11.95-18.83,17.84-6.5,6.08-14.18,9.4-21.84,13.72-7.35,4.84-14.76,8.61-23.17,11.3-5.66,2.19-10.78,3.1-16.79,3.65-8.64,1.25-16.73,2.48-25.46,2.63-14.32.37-28.48-.89-42.41-4.28-8.55-2.06-15.89-5.96-23.73-9.81-10.44-4.92-20.29-10.41-29.34-17.61-10.77-9.62-21.1-19.51-29-31.7-14.58-21.53-23-46.91-24.8-72.82-1.96-12.93-.38-25.92,2.33-38.66,2.12-11.46,6.32-21.92,10.81-32.58,2.72-5.34,5.89-9.47,8.78-14.72,1.66-3.02,1.84-5.03,3.85-7.79,2.01-2.77,4-3.38,6.2-6.04,2.2-2.65,2.57-4.63,4.8-7.22,3.99-4.46,8.49-7.32,13.22-10.93,15.53-12.5,33.13-22.61,52.34-28.16,5.85-1.17,10.96-2.27,16.84-3.23,3.4-.35,5.16.05,8.58-.14,5.75-.76,11.46-1.08,17.08-.42,11.4.61,22.64,2.77,33.41,6.89,10.95,3.6,20.91,8.73,30.64,14.87,7.3,4.77,14.37,9.11,20.68,15.18,10.16,10.23,18.46,21.75,25.65,34.22,12.76,21.98,18.72,46.81,17.5,72.29-.16,3.48.73,5.22.37,8.69s-.6,5.19-1.16,8.63c-1.85,11.61-5.09,22.59-9.74,33.38-4.85,10.67-10.72,20.61-18.62,29.31-4.08,4.48-8.09,7.83-12.45,12.02-4.03,4.62-7.85,8.12-13.19,11.16-9.41,6.97-20.06,10.81-31.03,14.59-5.56,2.23-10.41,4.12-16.29,5.37-19.69,4.44-40.15,3.44-59.3-2.93-5.71-1.74-10.74-3.03-16.36-5.04-8.15-3.26-15.28-7.55-22.66-12.28-7.49-4.71-13.73-10.28-19.42-17.04-16.33-16.48-27.59-37.5-32.83-60.07-2.1-8.63-2.92-16.96-3.59-25.8-.98-8.08.21-21.3,2.57-30.24,1.57-8.77,5.12-16.31,8.87-24.3,1.29-3.21,1.21-5.21,2.83-8.25,1.62-3.03,3.16-4.17,5.25-6.91,5.35-6.92,10.21-13.52,16.23-19.87,8.04-8.26,17.04-14.94,27.13-20.49,12.49-6.98,25.76-12.15,39.9-14.57,5.93-.5,11.13-.88,17.07-1.32,22.8.64,45.1,8.02,64.5,19.91,2.83,1.9,4.05,3.15,6.78,5.21,5.03,3.31,8.93,6.64,12.78,11.3,5.78,6.56,11.87,12.19,16.49,19.68,4.88,7.35,8.24,14.94,11.64,23.06,3.68,8.08,6.48,16.07,7.53,24.94,3.81,30.34-3.22,61.81-22.31,85.92-6.02,6.43-10.27,13.73-17.35,19.13-9.02,7.19-18.71,13.37-29.51,17.47-11.19,2.41-21.83,6.03-33.35,6.58-14.21.71-28.17-1.06-41.97-4.41-5.76-1.54-10.52-3.61-15.83-6.32-7.82-3.88-15.06-7.96-21.64-13.75-4.66-3.82-8.02-7.8-11.72-12.52-13.52-14.93-22.93-33.32-26.61-53.16-2.11-12.36-2.73-23.47-1.35-36.77,1.08-5.96,2.28-11.17,4.04-16.97,2.05-5.69,4.65-10.32,7.57-15.6,3.09-5.14,5.35-9.96,8.83-14.82,2.15-2.67,3.79-3.57,6.22-6,13.19-15.25,30.9-25.18,49.89-31.45,10.74-4.38,22.62-5.87,34.01-4.04,5.87,1.41,10.67,3.04,16.64,4.42,13.78,3.87,26.56,10.24,37.9,18.98,4.52,3.89,7.95,7.78,12.19,12,12.76,11.93,21.06,27.94,25.55,44.75,5.67,26.44,1.8,57.06-15.71,78.69-3.87,4.63-6.63,9.14-10.26,13.93-10.08,10.39-23,17.58-36.64,22.16-5.81,1.29-11.02,1.69-16.87,2.82-5.86,1.13-11,1.75-16.97,1.29-19.94-1.37-39.56-8.25-55.19-20.86-4.82-3.7-8.1-7.79-11.55-12.73-13.01-15.39-22.2-34.37-22.75-54.78-1.1-16.83,1.49-30.92,9.21-45.92,9.7-17.89,24.61-30.95,43.12-39.21,12.49-7.03,27.06-10.46,41.31-8.46,5.99.9,10.65,3.12,16.21,5.59,5.5,2.12,10.24,3.81,15.45,6.58,5.14,2.85,9.64,5.43,14.35,8.96,8.54,7.64,16.22,16.14,21.72,26.28,8.68,16.2,11.32,37.31,8.1,54.65-1.65,8.59-4.79,16.38-9.64,23.65-3.47,4.81-6.29,9.08-9.64,13.97-6.83,9.41-16.95,15.16-27.6,19.25-8.14,2.63-16.23,3.47-24.64,4.8-19.52,1.4-39.61-5.5-54.52-18.12-6.57-5.7-10.69-12.89-15.36-20.12-19.7-29.58-12.44-73.23,17.36-93.66,17.7-12.43,35.3-18.35,56.77-12.51,8.19,2.55,15.3,7.81,22.55,12.36,13.92,10.23,24.34,25.23,27.33,42.4,3.76,17.27-.29,30.86-8.96,45.12-9.16,14.75-23.93,23.92-41.1,26.03-13.82,2.03-27.83-1.31-39.49-8.94-9.79-5.95-17.19-14.16-21.68-24.74-5.41-10.09-6.51-17.06-5.62-28.7.94-16.74,11.31-32.38,26.11-40.13,8.28-4.18,17.11-7.96,26.55-7.83,21.79,1.17,41.22,18.51,46.49,39.48,1.23,4.34,1.83,8.78.68,13.04-.31,3.79.56,6.74-.33,10.41-5.14,15.93-20.16,28.35-36.89,29.92-13.84,1.06-27.17-5.32-36.79-15.03-4.23-4.34-5.88-9.4-6.6-15.33-3.2-11.33-.8-25.77,8.09-34.6,5.86-6.22,14.12-8.77,22.48-9.35,17.74-1.83,33.13,14.24,33.75,31.44,1.37,15.92-13.4,28.55-28.83,25.34-10.31-1.69-20.53-9.92-20.15-21.12.05-3.81.06-7.82,2.27-11.13,5.44-9.58,20.59-9.43,26.31-.27,3.44,5.02,4.97,14.44-2.73,16.34-2.38.64-5.56-.26-6.98-2.19-.67-1.7.84-2.85,2.41-3.53,1.1-.56,2.05-1.43,2.55-2.65.71-2.54.61-4.78-3.45-7.42-4.66-3.03-11.28-1.24-14.05,3.57-4.05,5.34-.86,15.53,4.6,20.17,9.59,9.69,26.59,4.32,30.7-8.12,3.59-10.28-1.3-22.13-9.58-28.72-15.91-12.87-39.13-4.48-44.87,14.69-.96,3.81-.62,5.58-.53,7.58-.72,6.31,1.07,10,4.13,15.48,6.04,16.28,20.74,25.11,37.97,22.57,16.53-1.88,28.27-15.56,30.82-31.5.45-2.64,1.87-4.22,1.87-6.55.04-2.55-.43-4.44-.97-7.41-2.41-15.47-13.11-28.8-27.59-34.63-14.13-5.75-31.42-6.36-44.07,3.21-10.67,7.13-17.4,18.75-19.56,31.3-1.56,8.88-.45,8.54-.27,11.8.38,6.4,1.3,12.19,3.94,18.06,1.57,3.32,3.04,4.65,5.07,7.74,2.03,3.09,2.79,4.81,5.09,7.69,5.77,7.57,13.75,12.51,22.67,15.61,14.65,5.08,31.32,3.82,44.52-4.48,8.39-4.22,15.53-10.24,20.02-18.58,1.74-3.23,1.98-5.18,3.36-8.58,1.38-3.4,2.65-4.91,3.54-8.42.89-3.51.64-5.47.77-9.11,1.05-21.05-6.1-39.1-21.41-52.89-8.95-8.34-20.64-12.04-32.47-14.04-9.02-1.19-17.74-.73-26.71.74-9.16,1.84-16.94,6.67-23.89,12.8-11.31,10.31-19.08,24.41-21.08,39.64-1.2,8.82-.36,11.5-.22,13.78.36,6.4,1.31,11.87,3.05,18.04,3.59,16.19,13.68,26.65,26,36.94,12.14,9.59,27.34,14.28,42.73,14.26,6.41.28,12.06-.07,18.2-2.04,11.69-3.97,21.84-10.5,30.95-18.77,4.83-4.14,8.95-8.05,12.34-13.49,7.16-13.05,9.94-26.85,10.24-41.82-.14-12.14-3.54-23.64-8.4-34.68-6.86-13.41-16.68-25.16-29.36-33.41-5.13-3.66-10-6.49-16.2-7.82-3.51-.77-5.48-.4-9.02-.81-8.9-1.44-17.26-2.34-26.26-1.35-11.87,1.22-23.92,2.99-34,9.85-12.67,8.22-23.17,19.66-29.27,33.55-5.85,12.26-9.51,25.61-8.85,39.24,1.26,20.63,7.63,42.82,22.01,58.16,6.7,6.23,13.22,12,20.8,17.15,7.79,4.8,15.72,8.51,24.58,10.86,8.85,2.58,17.57,2.85,26.74,2.81,6.3.05,11.83-.47,17.81-2.53,8.38-3.59,16.62-6.46,24.19-11.68,7.57-5.11,14.04-10.83,20.91-16.81,6.79-6.39,10.57-14.52,13.96-23.06,2.51-5.78,4.22-10.93,5.47-17.11,1.68-8.42,2.55-12.1,2.55-22.39-.99-19.43-8.38-43.47-19.93-59.2-16.72-20.91-41.39-38.91-69.29-37.17-17.9-.46-36.34-.03-52.8,7.84-16.61,7.93-29.82,21.28-39.66,36.67-3.39,5.4-5.38,10.57-7.47,16.56-2.49,5.85-4.16,11.04-5.12,17.33-1.95,10.57-3.38,20.88-1.83,31.65,2.66,21.1,10.29,41.56,23.55,58.31,14.49,15.17,31.66,28.64,52.16,34.33,8.79,2.63,17.28,4.75,26.51,4.71,9.14-.16,17.84-.75,26.84-2.27,11.51-3.47,22.68-7.64,32.93-14.03,5.34-3.3,9.54-6.72,14.29-10.81,4.84-4,9.11-7.48,13.24-12.24,13.1-16.64,21.03-37.04,23.26-58.07,1.68-10.22.33-22.71-1.84-33.53-2.8-17.86-9.91-34.59-20.13-49.46-13.55-21.55-41.55-38.36-66.16-43.72-8.88-2.4-17.57-1.75-26.66-2.03-14.98.33-29.76,1.75-43.84,7.25-14.17,5.46-26.52,14.17-37.62,24.43-4.46,4.44-8.33,8.46-11.91,13.64-1.96,3.04-2.25,5.04-4.12,8.14-1.87,3.1-3.4,4.26-5.22,7.37-3.24,5.44-4.9,10.73-6.62,16.79-5.27,15.91-6.96,32.06-6.77,48.86,2.11,27.03,12.65,53.3,30.07,74.1,3.97,4.91,8.04,8.53,13.01,12.39,7.05,5.82,13.8,11.2,21.73,15.78,10.79,5.38,21.35,10.9,33.24,13.35,20.46,4.77,42.18,3.78,62.27-2.3,6.1-1.69,10.99-4.1,16.37-7.4,7.92-4.52,15.6-8.34,22.65-14.19,4.68-4.13,9.24-7.16,14.06-11.09,11.96-13.44,21.63-28.79,28.22-45.57,4.13-11.39,6.67-23.01,7.41-35.11.36-6.23.99-3.83.5-13.57-.83-12.15-2.26-23.92-5.32-35.72-6.9-24.73-19.36-43.35-37.76-60.91-7.29-5.58-14.05-11.07-21.8-16.04-7.82-4.85-15.74-8.47-24.41-11.52-11.4-4.15-23.24-5.26-35.19-6.68-3.57-.16-5.37.36-8.95.32-3.58-.04-5.4-.71-8.96-.5-3.56.21-5.29,1.02-8.84,1.55-3.54.53-5.37.44-8.88,1.12-11.68,3-23.21,5.74-34.05,11.22-10.97,5.33-20.87,12.08-29.12,21.1-5.03,3.9-9.18,7.39-12.98,12.56-6.45,6.79-10.09,14.8-14.37,23-1.8,3.14-3.18,4.47-4.85,7.68-3.06,5.62-4.27,11.05-5.76,17.2-3.16,8.73-4.71,17.32-5.18,26.6-.2,6.09-1.04,17.88-1.06,20.36.34,9.18,1.67,17.76,3.73,26.7,6.01,26.37,20,50.36,38.66,69.78,6.76,6.1,13.45,11.5,20.72,16.98,9.9,6.8,20.36,12.27,31.48,16.77,8.65,2.79,17.18,4.03,26.14,5.42,21.95,3.64,40.05,1.86,61.34-4.02,8.88-1.98,17.28-4.11,25.1-8.93,8.08-4.25,14.89-9.47,22.02-15.11,5.11-3.57,9.43-6.8,13.62-11.46,19.92-22.09,35.41-48.78,41.1-78.19,6.47-32.79.08-71.02-17.4-100.45-4.29-8.13-9.07-15.43-15.08-22.4-4.33-4.52-8.29-8.24-12.6-12.78-10.59-10.69-22.6-19.44-36.23-25.84-10.87-4.97-21.98-8.45-33.48-11.65-14.44-3.73-29.12-4.43-43.94-4.44-8.91,1.34-17.43,2.14-26.19,4.44-20.21,4.79-39.71,13.04-56.4,25.51-12.48,8.68-21,21.11-31.43,31.9-12.76,16.93-20.82,36.75-25.8,57.27-11.46,52.37,5.13,107.43,41.66,146.19,6.05,6.91,12.92,12.15,20.12,17.8,4.93,3.86,9.24,7.17,14.56,10.47,7.75,4.91,15.98,7.62,24.43,11.06,13.96,5.51,28.37,8.76,43.28,10.34,14.91,1.3,29.82.71,44.47-2.42,11.64-3.08,22.44-7.36,33.51-12.04,5.79-2.26,10.87-4.2,16.22-7.42,5.33-3.25,9.43-6.84,14.32-10.7,5-3.72,9.3-6.95,13.79-11.29,17.12-16.78,30.73-36.82,41.05-58.41,16.4-40.81,14.09-88.02-2.83-128.34-8.53-19.27-19.6-37.77-35.3-52.04-19.21-18.87-43.02-32.04-68.34-40.85-19.75-6.3-40.41-8.78-61.09-8.27-32.84,2.5-64.26,12.43-91.1,31.84-24.71,17.16-43.99,41.77-55.97,69.29-14.24,34.16-17.77,72.38-9.47,108.76,11.46,49.48,44.79,93.2,89.01,118,18.43,9.58,37.97,16.97,58.53,20.27,23.45,3.46,47.61,2.47,70.52-3.74,11.6-3.14,22.11-8.01,32.83-13.33,5.82-2.19,10.76-4.29,15.85-7.96,14.57-10.27,28.47-21.28,40.21-34.78,8.02-8.98,16.21-17.55,21.92-28.23,39.28-67.42,28.84-156.06-21.93-214.72-5.95-6.93-11.79-13.39-18.9-19.13-5.26-3.34-10.12-5.85-15.11-9.59-29.01-20.27-63.41-32.1-98.74-34.05-35.77-2.54-79.13,9.41-109.46,28.36-5.5,2.93-10.32,5.48-15.13,9.51-4.75,4.04-8.49,8-13.11,12.2-9.02,8.06-16.68,17.01-23.76,26.81-48.88,68.46-45.87,166.05,7.05,231.48,11.15,14.14,23.82,26.64,38.19,37.49,7.18,5.63,14.11,10.74,22.32,14.76,15.7,8.61,32.26,15.25,49.7,19.34,11.73,2.48,23.33,3.38,35.28,3.91,14.9.67,29.42-.58,44.09-3.11,6.17-.7,11.48-1.54,17.45-3.33,11.62-3.11,22.15-8.1,32.91-13.38,5.71-2.47,10.62-4.69,15.85-8.1,14.88-10.03,28.67-21.26,41.93-33.33,18.52-19.79,32.54-43.49,41.54-69.04,29.48-82.48-.36-178.75-69.71-231.69-9.29-7.66-20.24-11.98-30.82-17.5-44.37-22.35-97.16-29.31-145.26-15.88-17.2,4.5-33.39,11.36-49.56,18.61-7.85,4.56-14.31,10.29-21.87,15.26-4.58,4.16-8.41,7.94-13.29,11.8-6.65,6.19-13.21,11.72-19.28,18.51-15.26,18.46-27.72,39.1-35.84,61.68-19.46,51.97-16.71,111.57,6.11,162.21,18.52,40.57,50.35,75.07,88.71,97.67,23.22,13.09,48.68,21.78,75.1,25.35,17.54,2.73,35.2,3.46,52.85,1.39,23.25-3.85,46.25-9.42,67.86-18.99,10.99-4.83,20.79-11,30.66-17.78,5.41-3.08,10.11-5.76,14.92-9.79,49.89-40.95,79.16-105.25,78.01-169.71-.3-75-40.65-148.38-104.15-188.35-10.07-6.55-21.03-10.69-32.12-15.18-27.35-10.92-56.49-16.97-85.97-17.08-26.55-.21-52.92,4.44-77.87,13.49-8.47,3.28-16.93,5.13-24.64,10.11-10.27,6.22-20.3,12.04-29.74,19.52-9.95,6.75-19,14.23-27.18,23.08-52.03,53.19-73.41,131.21-58.34,203.77,18.47,93.2,93.17,166.24,186.76,182.58,32.06,6.07,65.38,5.05,96.74-4.12,14.16-4.61,28.38-8.21,41.74-14.95,8-4.44,16.42-6.65,23.89-12.04,48.24-30.38,84.29-79.06,99.63-133.94,19.62-68.48,5.92-145.2-34.61-203.57-21.56-32.25-51.68-57.83-85.52-76.44-18.77-8.64-38.47-14.75-58.61-19.27-37.25-8.05-76.14-7.54-113.1,1.83-6.04,1.26-11.08,2.92-16.95,4.77-6.08,1.29-11.2,2.76-16.8,5.54-11.02,4.62-21.11,10.37-31.23,16.72-7.91,4.44-14.94,9.29-22.08,14.89-42.16,33.3-72.51,80.87-85.17,133.07-30.33,125.23,40.81,255.69,163.46,296.23,41.97,14.32,87.85,17.54,131.07,7.02,14.39-3.73,28.72-6.95,42.48-12.68,32.89-13.9,62.72-34.75,86.87-61.07,19.93-22.22,36.39-47.61,47.66-75.28,17.83-43.19,22.56-90.09,15.59-136.69-5.66-35.44-19.03-69.44-37.62-100.06-19.14-30.24-44.32-56.47-73.98-76.52-10.28-6.19-20.29-12.09-30.8-17.87-10.94-4.81-21.73-9.24-33.3-12.29-14.43-3.35-28.62-6.29-43.28-8.41-40.82-6.09-82.53-.82-121.76,11.33-6.05,1.56-10.92,3.74-16.45,6.57-8.64,2.92-15.83,7.51-23.79,11.91-13.51,6.56-24.89,15.94-36.91,24.79-9.46,7.48-17.01,16.48-25.67,24.82-5.78,7.05-11.43,13.52-17.04,20.72-6.82,9.96-13.3,19.7-19.1,30.3-43.34,77.71-41.69,177.01.98,254.59,22.42,42.29,57.12,77.33,97.91,102.13,66.42,40.54,149.52,48.74,222.85,23.01,14.18-4.85,27.45-11.16,40.37-18.72,13.59-6.35,25.51-15.17,37.31-24.38,21.03-16.81,39.45-36.66,54.19-59.21,3.34-5.3,6.4-9.77,9.86-14.98,6.21-10.4,11.07-21.1,15.88-32.21,7.5-16.52,11.68-33.9,15.05-51.66,3.84-21.26,6.49-37.85,5.24-60.27-.61-20.92-3.01-41.63-8.32-61.89-8.22-31.71-21.99-61.77-40.1-89.03-6.65-10-14.49-18.57-22.28-27.68-6.09-6.72-11.26-13.57-17.93-19.76-19.65-18.03-41.65-33.42-65.74-44.91-5.67-2.51-10.41-5.02-15.98-7.69-5.72-2.35-10.86-3.89-16.71-5.89-14.04-4.96-28.45-7.1-43.17-8.92-29.06-3.93-58.41-4.21-87.43.24-8.93,1.04-17.11,3.07-25.85,5.14-6.14.93-11.13,2.63-16.93,4.83-3.39.99-5.29.91-8.66,1.96-5.79,2.1-10.69,4.31-16.37,6.72-5.43,2.97-10.1,5.54-15.84,7.9-10.98,4.86-20.77,11.08-30.43,18.18-12.42,8.32-23.26,18.23-34.09,28.48-5.93,6.9-12.27,12.66-17.83,19.88-9.98,11.18-18.38,23.27-26.15,36.08-63.7,106.59-47.8,245.84,35.51,337.35,38.21,41.26,88.56,71.52,143.21,85,17.3,4.46,34.79,6.33,52.59,7.21,35.46,2.68,71.17-3.03,104.74-14.48,76.92-26.3,138.75-85.65,169.97-160.49,3.46-8.48,6.38-16.59,8.36-25.53,6.28-20,10.19-40.46,11.99-61.35,1.92-18.35,1.32-38.58-.63-58.2-3.8-32.6-13.01-64.58-27.24-94.16-10.51-21.37-22.25-42.24-38.22-60.05-11.65-13.57-23.91-26.19-37.37-37.97-9.05-7.87-17.76-15.57-27.86-22.09-7.43-5.25-15.03-9.14-23.03-13.42-8.01-4.27-15.6-8.1-24-11.53-24.17-11.19-50.32-18.12-76.97-19.5-23.5-1.65-46.91-1.88-70.34.91-6.13.59-11.44,1.02-17.53,1.96-8.85,1.73-17.11,3.75-26.01,5.19-3.42.9-4.96,1.95-8.34,3-5.99,1.55-11.23,2.71-16.92,5.24-5.57,2.72-10.44,4.93-16.3,7-5.67,2.49-10.51,4.8-16.1,7.49-13.27,6.87-25.66,14.72-37.64,23.65-11.92,9.07-22.66,19.06-33.16,29.72-11.11,10.06-20.02,21.9-29.16,33.75-20.86,29.19-36.28,62.11-45.86,96.66-26.4,96.07-1.32,203.87,64.28,278.71,31.8,34.79,70.5,64.28,114.71,81.24,11.23,4.03,21.61,9.16,33.23,12.07,5.91,1.91,11.17,2.78,17.27,3.76,11.57,2.97,22.94,4.89,34.86,5.83,88.47,8.34,179.58-25.57,240.94-89.87,18.77-19.08,35.07-40.56,47.54-64.26,8.84-15.61,16.71-31.59,21.37-48.98,17.68-52.13,22.34-108.96,10.86-162.94-8.65-43.87-27.28-85.25-52.81-121.86-10.3-14.61-22.69-27.22-35.2-39.93-12.64-12.54-26.26-23.66-40.89-33.79-18.51-14.88-39.79-25.5-61.8-34.19-24.54-10.33-50.45-16.96-76.92-19.83-20.6-1.96-41.14-1.3-61.7.86-8.95,1.04-17.44,1.02-26.33,2.57-23.28,4.16-46.01,10.34-67.66,19.96-30.52,11.76-57.75,30.13-82.25,51.62-16.06,13.34-30.08,28.62-42.55,45.34-20.21,25.84-35.87,55.02-46.43,86.07-22.28,60.33-23.76,127.78-7.33,189.64,36.56,139.08,163.36,238.86,307.64,238.49,126.01-.11,237.08-74.03,289.44-188,7.71-19.43,14.69-39.03,19.53-59.4,7.97-34.27,10.51-66.25,8.05-102.26-4.43-50.51-19.82-100.07-46.06-143.54-7.68-12.85-15.69-25.16-25.07-36.84-7.56-9.33-15.7-17.61-24.12-26.16-26.82-27.73-59.24-49.12-93.29-66.91-13.09-7.22-27.08-11.6-41.28-16.08-13.9-5.36-28.34-8.12-42.96-10.84-26.26-4.6-53.01-4.61-79.44-1.83-8.99.86-17.51.88-26.42,2.42-20.47,3.47-40.21,9.25-59.8,16.05-28.05,9.73-54.25,23.96-77.95,41.85-21.94,15.35-41.59,33.71-58.52,54.44C27.69,194.02.72,288.1,10.79,377.83c23.42,210.73,230.56,350.82,434.22,287.05,103.65-32.49,184.62-114.46,217.96-217.55,8.41-25.45,13.8-51.78,16.03-78.49.5-6.21.82-11.59,1.08-17.82.13-3.57.18-5.35.22-8.92.29-2.22-.3-4.91-2.96-4.92Z"/>
  </g>
</svg>